<ttFont>
          <CharString index="0">
            rmoveto
            -6 7 5 -1 5 hhcurveto
            9 5 7 0 hvcurveto
            -110 147 rlineto
            9 -9 -10 5 -10 hhcurveto
            -9 -10 -5 -9 -7 hvcurveto
            -114 -147 rlineto
            -5 2 3 -3 6 hhcurveto
            5 7 2 6 7 hvcurveto
            111 90 rlineto
            return
          </CharString>
          <CharString index="1">
            42 13 -1 54 hhcurveto
            4 2 7 6 7 -3 10 -5 hvcurveto
            -49 hlineto
            -10 -11 11 77 hvcurveto
            return
          </CharString>
          <CharString index="2">
            29 22 24 29 27 -25 22 -26 -27 -24 -21 -28 -29 21 -24 30 hvcurveto
            167 hmoveto
            30 21 24 29 27 -24 22 -27 -26 -25 -21 -28 -29 22 -24 29 hvcurveto
            return
          </CharString>
          <CharString index="3">
            rmoveto
            32 6 12 27 2 vhcurveto
            86 -1 49 -7 35 -13 23 -11 8 -34 7 -28 rrcurveto
            -5 1 9 -3 12 callsubr
            8 3 5 -2 hvcurveto
            -8 42 -2 60 50 vvcurveto
            6 -10 callgsubr
            -7 -8 -3 -6 vhcurveto
            -21 -290 vlineto
            -51 -40 2 -35 hhcurveto
            1 callgsubr
            return
          </CharString>
          <CharString index="4">
            13 15 13 3 15 hhcurveto
            25 hlineto
            6 4 9 8 7 -3 9 -7 hvcurveto
            -25 -61 -2 -25 -32 -61 2 -25 hhcurveto
            -5 -4 -10 -8 -10 callgsubr
            6 hvcurveto
            39 hlineto
            5 6 -3 -9 -6 -3 -9 -6 -12 hvcurveto
            -18 -36 -109 -120 -39 -67 rrcurveto
            -3 hlineto
            -50 103 -140 147 11 vvcurveto
            70 hlineto
            6 3 7 7 8 -4 11 -5 hvcurveto
            0 -101 -2 -40 vhcurveto
            -37 -60 2 -27 hhcurveto
            -5 -2 -8 -7 -8 32 callgsubr
            32 hlineto
            18 18 -8 -56 48 hvcurveto
            return
          </CharString>
          <CharString index="5">
            466 412 rmoveto
            5 -20 callsubr
            -5 hvcurveto
            -34 -15 -2 -24 -30 -16 2 -50 hhcurveto
            -3 -2 -9 -7 -6 1 -5 4 hvcurveto
            47 hlineto
            5 8 -3 -14 -44 -49 -107 -45 -149 hvcurveto
            -55 162 -58 133 14 vvcurveto
            6 5 3 8 vhcurveto
            45 hlineto
            4 2 6 7 6 -1 -34 callsubr
            -46 -37 -2 -25 -36 -22 2 -37 -17 callsubr
            -7 2 -5 4 30 10 -6 -28 13 hvcurveto
            49 -108 101 -199 -85 vvcurveto
            -51 -86 -175 -83 -35 -29 20 0 vhcurveto
            -52 -49 34 -38 58 hhcurveto
            79 74 65 183 71 hvcurveto
            46 120 72 222 62 119 rrcurveto
            8 4 6 6 9 hhcurveto
            return
          </CharString>
          <CharString index="6">
            274 450 rmoveto
            -122 -118 -98 -128 -132 110 -105 130 131 110 98 33 callgsubr
            -117 101 -124 hvcurveto
            -4 -36 rmoveto
            108 37 -104 -96 -89 -37 -102 -99 -107 -38 102 95 87 37 107 99 hvcurveto
            return
          </CharString>
          <CharString index="7">
            191 297 rmoveto
            119 4 13 -59 callsubr
            -16 -45 -71 -63 -84 callgsubr
            hvcurveto
            hintmask 01011000
            -81 callsubr
            hintmask 10011000
            -75 callsubr
            return
          </CharString>
          <CharString index="8">
            hhcurveto
            -7 -1 -8 -6 -12 3 -7 5 hvcurveto
            return
          </CharString>
          <CharString index="9">
            27 33 callsubr
            21 vvcurveto
            103 -69 66 -85 -106 -122 -91 -153 -111 87 -107 121 136 45 108 17 8 -4 4 -7 vhcurveto
            -18 -16 -52 -110 hhcurveto
            -77 -103 45 125 20 callsubr
            8 97 -5 69 5 rrcurveto
            return
          </CharString>
          <CharString index="10">
            -34 callgsubr
            -44 1 -42 -82 callgsubr
            -311 vlineto
            -171 131 -83 131 134 130 91 177 174 7 136 2 30 vhcurveto
            return
          </CharString>
          <CharString index="11">
            62 41 29 48 62 23 -58 -66 -8 -1 -15 -1 -17 vhcurveto
            -151 -45 -95 -68 -78 vvcurveto
            -50 37 -25 53 73 62 49 64 23 vhcurveto
            3 hlineto
            return
          </CharString>
          <CharString index="12">
            hhcurveto
            -6 0 -10 -4 -7 4 -24 callsubr
            20 hlineto
            14 14 -11 -86 hvcurveto
            return
          </CharString>
          <CharString index="13">
            -74 callsubr
            -11 -27 -44 -25 -72 hhcurveto
            -6 0 -10 -4 -7 4 -24 callsubr
            45 hlineto
            12 13 -11 -86 hvcurveto
            return
          </CharString>
          <CharString index="14">
            -46 callgsubr
            hintmask 10110000
            39 hmoveto
            478 26 0 -13 hvcurveto
            hintmask 01110000
            -7 11 0 6 vhcurveto
            hintmask 10110000
            15 1 3 5 1 14 4 81 11 63 8 51 rrcurveto
            7 1 -7 4 -8 hhcurveto
            -8 -8 -1 -10 -3 hvcurveto
            -131 -37 -40 -24 -31 hhcurveto
            -279 hlineto
            0 365 597 25 10 vhcurveto
            6 4 3 4 5 vvcurveto
            6 -2 5 -8 vhcurveto
            -436 hlineto
            -7 -3 1 11 11 -9 3 -8 -11 -15 -1 -14 -2 hvcurveto
            -6 -42 -10 -77 -6 -52 rrcurveto
            -6 -1 8 -3 9 hhcurveto
            9 9 3 6 1 hvcurveto
            107 27 48 16 17 hhcurveto
            251 hlineto
            0 -369 -587 -25 -16 vhcurveto
            -6 -4 -5 -4 -10 vvcurveto
            -7 3 -6 5 vhcurveto
            return
          </CharString>
          <CharString index="15">
            -147 145 rmoveto
            54 42 -39 -45 -12 -9 -4 -24 -3 hvcurveto
            -41 -6 -97 -6 -69 -7 rrcurveto
            81 15 68 41 61 hhcurveto
            return
          </CharString>
          <CharString index="16">
            -193 -282 rmoveto
            -31 -13 19 28 47 33 44 120 44 hvcurveto
            -118 -5 -53 -64 -51 hhcurveto
            return
          </CharString>
          <CharString index="17">
            680 684 rmoveto
            0 -14 17 -16 -9 -5 -3 -16 -11 vhcurveto
            -487 -698 rlineto
            -12 12 8 -5 9 hhcurveto
            11 6 9 15 10 hvcurveto
            return
          </CharString>
          <CharString index="18">
            vlineto
            -96 callgsubr
            return
          </CharString>
          <CharString index="19">
            -37 -29 13 -43 hhcurveto
            -40 -60 -30 -99 -4 hvcurveto
            -12 9 -7 8 5 4 3 5 1 vhcurveto
            endchar
          </CharString>
          <CharString index="20">
            191 388 rmoveto
            33 2 8 -84 callsubr
            return
          </CharString>
          <CharString index="21">
            262 -26 101 rrcurveto
            27 -7 2 14 24 hhcurveto
            58 hlineto
            7 3 5 7 8 -4 11 -6 hvcurveto
            -31 -97 -2 -23 -23 -59 2 -28 hhcurveto
            -4 -2 -10 -8 -8 2 -6 4 hvcurveto
            36 hlineto
            9 13 -7 -21 7 hvcurveto
            return
          </CharString>
          <CharString index="22">
            33 24 28 31 33 -29 22 -31 -31 -23 -28 -30 -31 26 -25 31 hvcurveto
            return
          </CharString>
          <CharString index="23">
            37 11 callsubr
            -8 vhcurveto
            -12 -47 -71 -61 -84 callgsubr
            return
          </CharString>
          <CharString index="24">
            -10 -4 -21 -31 hhcurveto
            -27 -17 15 52 hvcurveto
            49 10 92 60 vvcurveto
            return
          </CharString>
          <CharString index="25">
            -41 -60 -59 -19 -67 hhcurveto
            -152 -130 99 205 201 123 102 143 67 59 -21 -51 55 hvcurveto
            8 -47 rlineto
            -7 1 8 -3 8 hhcurveto
            9 8 3 7 -1 hvcurveto
            -7 47 -3 51 50 vvcurveto
            7 -6 2 -7 -8 -8 -3 -6 vhcurveto
            -23 vlineto
            22 -43 -56 17 -62 hhcurveto
            -210 -202 -131 -240 hvcurveto
            endchar
          </CharString>
          <CharString index="26">
            -6 3 -9 4 vhcurveto
            return
          </CharString>
          <CharString index="27">
            0 96 -72 79 -90 vhcurveto
            9 9 4 8 9 vvcurveto
            33 -59 37 -53 66 vhcurveto
            53 66 59 37 33 vvcurveto
            9 -4 8 -9 9 vhcurveto
            -79 -90 -96 -72 0 vvcurveto
            return
          </CharString>
          <CharString index="28">
            -36 -13 55 -55 69 -46 -21 305 156 -33 33 return
          </CharString>
          <CharString index="29">
            rmoveto
            -70 -39 -62 -46 -95 vvcurveto
            -43 27 -43 47 34 23 25 32 22 -12 18 -14 7 vhcurveto
            -39 -3 -22 9 29 vvcurveto
            33 44 47 55 28 vhcurveto
            return
          </CharString>
          <CharString index="30">
            100 52 vlineto
            7 3 7 10 10 -3 7 -7 hvcurveto
            -52 43 hlineto
            122 7 44 14 vvcurveto
            10 -10 5 -15 vhcurveto
            -197 -239 rlineto
            -6 -7 -2 -8 -6 vvcurveto
            -6 2 -6 6 vhcurveto
            153 hlineto
            -1 172 rmoveto
            3 hlineto
            0 -2 -25 -24 vvcurveto
            -90 -116 vlineto
            endchar
          </CharString>
          <CharString index="31">
            287 440 rmoveto
            6 -18 -23 4 -24 hhcurveto
            -84 -69 -45 -81 hvcurveto
            -134 204 10 -111 vvcurveto
            -47 -40 -23 -40 -66 -36 53 60 -18 vhcurveto
            -3 10 -25 -6 2 -10 7 -55 8 -32 5 -46 1 -9 6 0 6 1 rrcurveto
            12 2 0 2 15 vvcurveto
            return
          </CharString>
          <CharString index="32">
            38 21 3 57 hhcurveto
            return
          </CharString>
          <CharString index="33">
            11 callsubr
            -9 vhcurveto
            return
          </CharString>
          <CharString index="34">
            rmoveto
            -4 -3 -3 -4 -4 vvcurveto
            -3 2 -3 5 vhcurveto
            239 -16 hlineto
            -4 7 -2 7 6 6 2 4 36 3 39 5 37 vhcurveto
            4 -6 2 -7 -7 -7 -2 -4 vhcurveto
            -4 -27 rlineto
            -20 -28 -38 -7 -64 hhcurveto
            -18 -8 -1 0 hvcurveto
            -2 3 rlineto
            return
          </CharString>
          <CharString index="35">
            291 86 204 rrcurveto
            19 8 9 14 19 hhcurveto
            48 hlineto
            5 3 5 8 8 -3 10 -5 hvcurveto
            -21 -65 -2 -26 -37 -56 2 -35 hhcurveto
            -5 -3 -11 -8 -7 2 -6 6 hvcurveto
            66 hlineto
            4 5 -6 -15 -8 -2 -11 -3 -14 hvcurveto
            -9 -38 return
          </CharString>
          <CharString index="36">
            -3 -2 -9 -6 return
          </CharString>
          <CharString index="37">
            38 21 3 57 -106 callsubr
            82 vlineto
            37 0 47 -1 17 vhcurveto
            -17 22 33 -27 74 hhcurveto
            127 105 111 33 callgsubr
            -73 88 -121 return
          </CharString>
          <CharString index="38">
            -34 -46 2 -29 hhcurveto
            -5 -4 -11 -8 -10 callgsubr
            6 hvcurveto
            48 hlineto
            13 7 -15 -25 2 hvcurveto
            8 -98 0 -169 3 -186 rrcurveto
            -4 hlineto
            -58 78 -356 446 0 vvcurveto
            -42 -104 2 -35 hhcurveto
            -4 -2 -10 -8 return
          </CharString>
          <CharString index="39">
            38 69 3 57 42 42 -1 54 hhcurveto
            4 2 7 6 7 -3 12 -5 hvcurveto
            -81 -1 rlineto
            -25 callsubr
            return
          </CharString>
          <CharString index="40">
            -63 callsubr
            103 return
          </CharString>
          <CharString index="41">
            186 12 vvcurveto
            6 5 3 6 vhcurveto
            48 hlineto
            4 2 6 7 6 -1 -34 callsubr
            -46 -37 -2 -25 -36 -22 2 -37 -17 callsubr
            -7 2 -5 4 28 9 -5 -33 16 hvcurveto
            return
          </CharString>
          <CharString index="42">
            rmoveto
            -5 5 8 -2 12 callsubr
            7 3 4 1 hvcurveto
            1 261 6 271 9 76 rrcurveto
            33 4 3 12 28 hhcurveto
            47 hlineto
            6 3 6 7 8 -4 12 -5 hvcurveto
            -35 -46 -3 -37 return
          </CharString>
          <CharString index="43">
            103 75 83 19 9 -5 4 -7 hvcurveto
            -13 -35 -43 -87 hhcurveto
            -76 -84 54 128 104 58 56 66 45 37 -20 -42 44 hvcurveto
            28 12 10 18 17 vvcurveto
            33 -44 31 -65 vhcurveto
            endchar
          </CharString>
          <CharString index="44">
            -20 -55 callgsubr
            return
          </CharString>
          <CharString index="45">
            -21 -7 -42 0 -21 hhcurveto
            -6 -3 -8 -8 -11 5 -6 6 hvcurveto
            return
          </CharString>
          <CharString index="46">
            -165 -176 -103 -145 -217 -90 hvcurveto
            -3 -1 -1 -3 -3 vvcurveto
            -6 6 -7 12 vhcurveto
            7 1 rlineto
            116 23 284 127 299 vvcurveto
            169 -110 return
          </CharString>
          <CharString index="47">
            32 23 3 85 hhcurveto
            return
          </CharString>
          <CharString index="48">
            37 -74 callsubr
            return
          </CharString>
          <CharString index="49">
            0 -42 15 -54 -134 -96 -78 -96 vhcurveto
            -206 308 21 -193 vvcurveto
            -54 -43 -53 -83 -108 -57 100 51 -15 vhcurveto
            5 -1 -8 2 -7 hhcurveto
            return
          </CharString>
          <CharString index="50">
            rlineto
            -12 12 9 -5 9 hhcurveto
            11 7 8 16 8 hvcurveto
            return
          </CharString>
          <CharString index="51">
            88 8 0 11 vvcurveto
            return
          </CharString>
          <CharString index="52">
            129 68 80 7 48 vvcurveto
            19 -15 13 -20 -62 -23 -70 -72 -108 vhcurveto
            -4 -2 0 -3 -2 vvcurveto
            -5 6 -4 7 3 -37 callgsubr
            3 vhcurveto
            return
          </CharString>
          <CharString index="53">
            6 -2 -6 2 -7 hhcurveto
            -8 -8 -3 -7 1 hvcurveto
            -3 3 -16 1 -4 vhcurveto
            return
          </CharString>
          <CharString index="54">
            rlineto
            -6 7 -3 7 9 8 3 7 4 vhcurveto
            7 3 13 9 31 hhcurveto
            123 89 -73 -102 -82 -60 -86 -117 -53 -44 35 59 -11 hvcurveto
            return
          </CharString>
          <CharString index="55">
            34 3 -15 15 -35 hhcurveto
            endchar
          </CharString>
          <CharString index="56">
            -88 callgsubr
            hintmask 1001101001000000
            -34 callgsubr
            -44 1 -42 hhcurveto
            1 callgsubr
            return
          </CharString>
          <CharString index="57">
            -106 callsubr
            237 vlineto
            22 20 37 18 40 hhcurveto
            95 return
          </CharString>
          <CharString index="58">
            59 36 104 71 80 vvcurveto
            59 -50 32 -66 -55 -68 -46 -57 -25 21 -16 21 13 13 6 12 9 vhcurveto
            -4 5 -8 19 16 vvcurveto
            return
          </CharString>
          <CharString index="59">
            37 20 43 36 39 vvcurveto
            49 -59 23 -43 -47 -73 -33 -51 -21 14 -11 17 12 12 7 14 8 vhcurveto
            -5 9 -2 8 8 vvcurveto
            return
          </CharString>
          <CharString index="60">
            34 3 -15 12 -35 hhcurveto
            return
          </CharString>
          <CharString index="61">
            rmoveto
            72 6 25 56 5 43 rrcurveto
            6 -6 2 -4 -4 -5 -2 -5 -3 vhcurveto
            -9 -15 -25 -15 -40 -3 -228 -19 rcurveline
            -31 return
          </CharString>
          <CharString index="62">
            310 rmoveto
            -9 4 -7 9 vhcurveto
            8 19 14 29 hhcurveto
            76 31 -69 -72 -86 -44 -57 -57 -69 -67 68 165 176 102 return
          </CharString>
          <CharString index="63">
            rrcurveto
            -7 3 8 -3 8 hhcurveto
            9 9 4 5 2 hvcurveto
            16 53 106 294 42 70 rrcurveto
            5 3 6 4 7 hhcurveto
            endchar
          </CharString>
          <CharString index="64">
            hintmask 0000000000000000
            return
          </CharString>
          <CharString index="65">
            -9 -8 -3 -7 hvcurveto
            4 -60 18 -85 17 -43 rrcurveto
            -4 2 4 -1 5 hhcurveto
            12 14 8 9 -4 hvcurveto
            -8 20 rlineto
            return
          </CharString>
          <CharString index="66">
            -299 vvcurveto
            -169 110 -82 106 114 108 72 135 89 -79 69 -101 -47 -49 -23 -19 vhcurveto
            endchar
          </CharString>
          <CharString index="67">
            58 -13 55 365 29 3 -20 return
          </CharString>
          <CharString index="68">
            32 53 2 85 hhcurveto
            117 hlineto
            218 170 126 209 199 -157 137 -250 hvcurveto
            return
          </CharString>
          <CharString index="69">
            85 hintmask 00000000
            return
          </CharString>
          <CharString index="70">
            vlineto
            31 14 11 24 -1 vhcurveto
            241 -15 95 -127 -179 vvcurveto
            -164 -107 -103 -164 -2 vhcurveto
            return
          </CharString>
          <CharString index="71">
            217 90 hvcurveto
            3 1 1 3 3 vvcurveto
            6 -6 7 -12 vhcurveto
            -7 -1 rlineto
            -116 -23 -283 return
          </CharString>
          <CharString index="72">
            -71 callsubr
            -6 32 callgsubr
            return
          </CharString>
          <CharString index="73">
            7 -5 hvcurveto
            return
          </CharString>
          <CharString index="74">
            vlineto
            -15 0 -9 -15 vhcurveto
            -95 hlineto
            -3 -2 -10 -6 return
          </CharString>
          <CharString index="75">
            275 -13 69 585 31 return
          </CharString>
          <CharString index="76">
            rmoveto
            62 12 42 7 38 return
          </CharString>
          <CharString index="77">
            26 11 2 39 29 -12 0 38 hhcurveto
            2 2 4 5 4 -2 9 -4 hvcurveto
            -29 -1 rlineto
            return
          </CharString>
          <CharString index="78">
            10 50 20 callgsubr
            -7 2 -8 hhcurveto
            -9 -9 -3 -5 -1 hvcurveto
            -5 -38 rlineto
            -27 -39 return
          </CharString>
          <CharString index="79">
            323 -21 callgsubr
            return
          </CharString>
          <CharString index="80">
            -20 hstemhm
            39 54 243 -38 callsubr
            hintmask 11011100
            return
          </CharString>
          <CharString index="81">
            rmoveto
            0 -14 17 -16 -9 -6 -4 -16 -9 vhcurveto
            return
          </CharString>
          <CharString index="82">
            -9 -12 11 77 hvcurveto
            return
          </CharString>
          <CharString index="83">
            -9 4 hvcurveto
            return
          </CharString>
          <CharString index="84">
            -33 -24 -28 -31 -33 29 -22 31 31 23 28 30 31 -26 25 -31 hvcurveto
            endchar
          </CharString>
          <CharString index="85">
            -2 68 33 74 49 vvcurveto
            30 -21 19 -22 vhcurveto
            hintmask 11100100
            -22 -21 -19 -30 hvcurveto
            return
          </CharString>
          <CharString index="86">
            4 hvcurveto
            41 hlineto
            6 6 -4 -16 -39 -47 -102 -46 -156 hvcurveto
            -37 111 return
          </CharString>
          <CharString index="87">
            2 6 7 6 -2 7 return
          </CharString>
          <CharString index="88">
            490 171 rmoveto
            220 -313 -10 159 vvcurveto
            47 23 59 92 return
          </CharString>
          <CharString index="89">
            44 32 -5 32 hhcurveto
            30 51 8 34 5 -1 6 -3 4 hvcurveto
            endchar
          </CharString>
          <CharString index="90">
            -7 callsubr
            -7 return
          </CharString>
          <CharString index="91">
            rlineto
            -8 -10 -4 -11 -9 vvcurveto
            -9 4 -7 7 vhcurveto
            260 hlineto
            -1 return
          </CharString>
          <CharString index="92">
            70 -325 hlineto
            -35 -7 -11 -34 vhcurveto
            -25 5 callgsubr
            -9 -5 hvcurveto
            return
          </CharString>
          <CharString index="93">
            -20 hstemhm
            93 85 213 -38 callsubr
            return
          </CharString>
          <CharString index="94">
            rmoveto
            53 41 39 54 50 -46 38 -49 return
          </CharString>
          <CharString index="95">
            hhcurveto
            -127 -105 -111 -135 -129 73 -88 121 77 return
          </CharString>
          <CharString index="96">
            57 1 56 2 53 vhcurveto
            168 11 callgsubr
            15 -35 hhcurveto
            return
          </CharString>
          <CharString index="97">
            hlineto
            175 10 65 21 vvcurveto
            13 -15 8 -22 vhcurveto
            -322 return
          </CharString>
          <CharString index="98">
            -14 31 52 -16 58 hhcurveto
            125 114 73 111 hvcurveto
            return
          </CharString>
          <CharString index="99">
            rmoveto
            8 3 3 6 vhcurveto
            50 hlineto
            return
          </CharString>
          <CharString index="100">
            hhcurveto
            -4 -2 -8 return
          </CharString>
          <CharString index="101">
            313 1 31 -30 -21 38 -21 23 -21 641 33 return
          </CharString>
          <CharString index="102">
            302 450 rmoveto
            -135 -128 -114 -148 return
          </CharString>
          <CharString index="103">
            -135 -89 77 -67 101 47 49 23 19 vhcurveto
            endchar
          </CharString>
          <CharString index="104">
            -3 4 3 -1 4 hhcurveto
            4 5 1 3 4 hvcurveto
            return
          </CharString>
          <CharString index="105">
            7 -8 rlineto
            -154 -8 -249 -12 -135 vhcurveto
            return
          </CharString>
          <CharString index="106">
            -269 27 -9 -21 259 return
          </CharString>
          <CharString index="107">
            256 -64 154 -135 -21 123 33 return
          </CharString>
          <CharString index="108">
            vvcurveto
            -106 10 -70 38 16 17 3 6 13 vhcurveto
            return
          </CharString>
          <CharString index="109">
            53 -13 23 -36 -38 vvcurveto
            -55 -32 -42 -52 vhcurveto
            return
          </CharString>
          <CharString index="110">
            0 -1 -41 38 vhcurveto
            return
          </CharString>
          <CharString index="111">
            231 30 36 -20 return
          </CharString>
          <CharString index="112">
            196 -103 103 374 114 hintmask 00000000
            return
          </CharString>
          <CharString index="113">
            rmoveto
            28 23 24 29 30 -23 24 -30 hvcurveto
            return
          </CharString>
          <CharString index="114">
            -20 -13 callgsubr
            return
          </CharString>
          <CharString index="115">
            rmoveto
            0 -7 4 -9 -21 -6 -12 -20 vhcurveto
            return
          </CharString>
          <CharString index="116">
            hstemhm
            256 99 hintmask 00000000
            return
          </CharString>
          <CharString index="117">
            31 callsubr
            hvcurveto
            return
          </CharString>
          <CharString index="118">
            vvcurveto
            8 -6 4 return
          </CharString>
          <CharString index="119">
            8 hhcurveto
            8 return
          </CharString>
          <CharString index="120">
            24 21 18 29 35 17 -20 -32 vhcurveto
            return
          </CharString>
          <CharString index="121">
            106 hstem
            136 41 130 41 vstem
            return
          </CharString>
          <CharString index="122">
            -147 554 -21 203 -20 hstem
            return
          </CharString>
          <CharString index="123">
            13 8 vhcurveto
            -6 7 -9 26 24 vvcurveto
            return
          </CharString>
          <CharString index="124">
            441 106 118 -20 37 -20 hstem
            return
          </CharString>
          <CharString index="125">
            142 0 40 -39 -21 654 37 return
          </CharString>
          <CharString index="126">
            -8 -5 -11 return
          </CharString>
          <CharString index="127">
            hvcurveto
            128 return
          </CharString>
          <CharString index="128">
            131 -44 44 hintmask 00000000
            hintmask 11100000
            return
          </CharString>
          <CharString index="129">
            190 -103 103 hintmask 00000000
            hintmask 11010100
            return
          </CharString>
          <CharString index="130">
            -20 hstemhm
            137 46 453 48 return
          </CharString>
          <CharString index="131">
            45 hstem
            234 50 vstem
            232 return
          </CharString>
          <CharString index="132">
            56 -5 171 -64 64 -30 56 return
          </CharString>
          <CharString index="133">
            rlineto
            0 -56 0 -5 -36 vhcurveto
            -28 return
          </CharString>
          <CharString index="134">
            569 56 -15 54 -4 -20 hstem
            return
          </CharString>
          <CharString index="135">
            hintmask 00000000
            hintmask 11010000
            return
          </CharString>
          <CharString index="136">
            -31 -18 1 -39 hhcurveto
            return
          </CharString>
          <CharString index="137">
            -172 22 79 21 return
          </CharString>
          <CharString index="138">
            hlineto
            -71 callsubr
            return
          </CharString>
          <CharString index="139">
            3 1 4 3 return
          </CharString>
          <CharString index="140">
            2 7 7 return
          </CharString>
          <CharString index="141">
            -4 vhcurveto
            -9 return
          </CharString>
        <CharString name=".notdef">
          endchar
        </CharString>
        <CharString name=".null">
          -507 endchar
        </CharString>
        <CharString name="A">
          -59 callgsubr
          357 -46 callgsubr
          hintmask 10110000
          481 63 -107 callgsubr
          endchar
        </CharString>
        <CharString name="AE">
          374 -8 -21 27 34 -11 -21 320 32 282 37 30 -20 hstemhm
          323 22 callgsubr
          230 318 rmoveto
          0 131 2 72 vhcurveto
          32 vlineto
          -53 -150 5 0 hvcurveto
          154 293 rmoveto
          -170 -97 -203 -448 -72 hhcurveto
          -38 hlineto
          -4 -5 -7 -10 -11 4 -6 5 hvcurveto
          37 23 3 39 hhcurveto
          hintmask 10111110
          34 44 -1 32 hhcurveto
          10 3 11 6 6 -3 10 -8 hvcurveto
          -53 hlineto
          -32 226 432 155 92 hvcurveto
          95 -32 -104 callsubr
          hintmask 11011101
          21 -28 rlineto
          -534 10 callgsubr
          -40 hlineto
          -5 -3 -9 -9 -72 callgsubr
          hvcurveto
          hintmask 10111110
          29 21 2 171 hhcurveto
          247 -22 hlineto
          -5 8 -2 8 8 7 2 5 51 2 58 7 50 20 callgsubr
          -7 2 -8 hhcurveto
          -9 -9 -3 -5 -1 hvcurveto
          -7 -55 -37 -26 -88 -15 -87 -1 rlinecurve
          -51 hlineto
          -9 -16 11 77 4 hvcurveto
          192 vlineto
          90 -2 87 -9 7 -4 11 -60 rcurveline
          -4 6 -2 7 9 10 3 5 -1 vhcurveto
          -4 31 -1 32 29 vvcurveto
          30 1 23 4 31 20 callgsubr
          -8 3 -8 hhcurveto
          -8 -7 -2 -5 -1 hvcurveto
          -10 -59 -6 -4 -92 -8 -87 -2 rlinecurve
          endchar
        </CharString>
        <CharString name="Aacute">
          78 -2 34 -11 -21 309 40 590 -46 callgsubr
          hintmask 10110000
          274 739 -99 callgsubr
          207 -676 -107 callgsubr
          endchar
        </CharString>
        <CharString name="Acircumflex">
          -59 callgsubr
          576 -46 callgsubr
          hintmask 10110000
          481 63 -107 callgsubr
          127 195 -107 callsubr
          endchar
        </CharString>
        <CharString name="Adieresis">
          -59 callgsubr
          440 102 hstemhm
          193 19 callgsubr
          hintmask 00000000
          hintmask 10111100
          -68 callgsubr
          hintmask 01111100
          36 39 -1 52 hhcurveto
          6 2 9 9 21 callgsubr
          -6 hvcurveto
          -36 hlineto
          -10 -14 23 77 -29 hvcurveto
          -201 543 rlineto
          15 -5 -4 15 -5 -20 9 -45 -57 hhcurveto
          -6 -4 -4 -4 hvcurveto
          -5 8 -8 -12 vvcurveto
          19 callsubr
          -4 -10 vhcurveto
          -93 -232 -40 -149 -76 -164 rrcurveto
          hintmask 10111100
          -16 -8 -9 -6 -16 hhcurveto
          -50 hlineto
          -4 -5 -7 -10 -11 4 -6 5 hvcurveto
          37 35 3 39 hhcurveto
          hintmask 01111100
          34 63 -1 32 hhcurveto
          10 3 11 6 6 -3 10 -8 hvcurveto
          -72 5 callgsubr
          5 10 11 2 16 6 21 hvcurveto
          20 72 21 71 22 70 rrcurveto
          181 hlineto
          28 -84 28 -81 26 -81 rrcurveto
          -172 506 rmoveto
          4 hlineto
          24 -77 25 -73 23 -70 rrcurveto
          -154 hlineto
          25 74 25 73 28 73 rrcurveto
          -65 220 rmoveto
          -105 callgsubr
        </CharString>
        <CharString name="Agrave">
          -59 callgsubr
          590 -46 callgsubr
          hintmask 10110000
          481 63 -107 callgsubr
          107 170 -102 callgsubr
          endchar
        </CharString>
        <CharString name="Aring">
          -59 callgsubr
          410 29 124 28 hstemhm
          244 34 119 34 hintmask 00000000
          hintmask 10111110
          -68 callgsubr
          hintmask 01111110
          36 39 -1 52 hhcurveto
          6 2 9 9 21 callgsubr
          -6 hvcurveto
          -36 hlineto
          -10 -14 23 77 -29 hvcurveto
          -201 543 rlineto
          15 -5 -4 15 -5 -20 9 -45 -57 hhcurveto
          -6 -4 -4 -4 hvcurveto
          -5 8 -8 -12 vvcurveto
          19 callsubr
          -4 -10 vhcurveto
          -93 -232 -40 -149 -76 -164 rrcurveto
          hintmask 10111110
          -16 -8 -9 -6 -16 hhcurveto
          -50 hlineto
          -4 -5 -7 -10 -11 4 -6 5 hvcurveto
          37 35 3 39 hhcurveto
          hintmask 01111110
          34 63 -1 32 hhcurveto
          10 3 11 6 6 -3 10 -8 hvcurveto
          -72 5 callgsubr
          5 10 11 2 16 6 21 hvcurveto
          20 72 21 71 22 70 rrcurveto
          181 hlineto
          28 -84 28 -81 26 -81 rrcurveto
          -172 506 rmoveto
          4 hlineto
          24 -77 25 -73 23 -70 rrcurveto
          -154 hlineto
          25 74 25 73 28 73 rrcurveto
          28 190 -13 callsubr
          -75 callgsubr
        </CharString>
        <CharString name="Atilde">
          -59 callgsubr
          475 26 callgsubr
          hintmask 00000000
          hintmask 10110010
          -68 callgsubr
          hintmask 01110010
          36 39 -1 52 hhcurveto
          6 2 9 9 21 callgsubr
          -6 hvcurveto
          -36 hlineto
          -10 -14 23 77 -29 hvcurveto
          -201 543 rlineto
          15 -5 -4 15 -5 -20 9 -45 -57 hhcurveto
          -6 -4 -4 -4 hvcurveto
          -5 8 -8 -12 vvcurveto
          19 callsubr
          -4 -10 vhcurveto
          -93 -232 -40 -149 -76 -164 rrcurveto
          hintmask 10110010
          -16 -8 -9 -6 -16 hhcurveto
          -50 hlineto
          -4 -5 -7 -10 -11 4 -6 5 hvcurveto
          37 35 3 39 hhcurveto
          hintmask 01101010
          34 63 -1 32 hhcurveto
          10 3 11 6 6 -3 10 -8 hvcurveto
          -72 5 callgsubr
          5 10 11 2 16 6 21 hvcurveto
          20 72 21 71 22 70 rrcurveto
          181 hlineto
          28 -84 28 -81 26 -81 rrcurveto
          -172 506 rmoveto
          4 hlineto
          24 -77 25 -73 23 -70 rrcurveto
          -154 hlineto
          25 74 25 73 28 73 rrcurveto
          -122 199 -31 callsubr
          hhcurveto
          hintmask 10110010
          -91 callgsubr
          hhcurveto
          hintmask 10100110
          -88 callsubr
        </CharString>
        <CharString name="B">
          157 0 40 -21 -21 333 36 264 40 2 -20 hstemhm
          143 103 207 108 -71 71 -71 121 -43 callsubr
          hintmask 1011011000000000
          561 500 rmoveto
          87 -73 84 -183 vhcurveto
          -115 hlineto
          hintmask 0110111000000000
          -40 -49 2 -42 hhcurveto
          -7 -1 -9 -6 -12 3 -7 5 hvcurveto
          63 hlineto
          9 12 -11 -77 hvcurveto
          -473 10 callgsubr
          -43 hlineto
          -5 -3 -9 -9 -72 callgsubr
          hvcurveto
          hintmask 1011010010000000
          32 53 2 85 hhcurveto
          97 hlineto
          182 103 83 92 79 -72 72 -122 22 hvcurveto
          4 vlineto
          hintmask 1011010100000000
          81 16 63 60 72 vvcurveto
          -315 -169 rmoveto
          203 -8 41 -66 -82 vvcurveto
          -78 -57 -57 -114 vhcurveto
          -51 hlineto
          -12 -10 15 73 hvcurveto
          457 vmoveto
          33 9 13 20 vhcurveto
          hintmask 1011011000000000
          129 49 -70 -69 -65 -51 -60 -103 -18 -17 1 3 -18 hvcurveto
          endchar
        </CharString>
        <CharString name="C">
          220 -13 6 callgsubr
          hintmask 00000000
          hintmask 10110000
          46 313 rmoveto
          -212 180 -114 220 64 63 13 26 65 vhcurveto
          -24 vlineto
          hintmask 01110000
          -45 callgsubr
          hintmask 10110000
          -82 callsubr
        </CharString>
        <CharString name="CR">
          endchar
        </CharString>
        <CharString name="Ccedilla">
          220 30 callsubr
          37 6 callgsubr
          113 9 callgsubr
          hintmask 11101101
          46 313 rmoveto
          -177 125 -109 170 -31 vhcurveto
          -25 -68 rlineto
          8 8 1 8 hhcurveto
          28 32 -9 -34 -24 -19 -12 -22 -16 -21 10 14 32 callsubr
          4 hvcurveto
          9 -4 -9 5 -9 hhcurveto
          hintmask 11101110
          -11 -10 -7 -13 -34 56 -17 27 37 40 19 42 47 -52 15 -38 -1 hvcurveto
          15 42 rlineto
          -3 25 26 -2 27 hhcurveto
          64 63 13 26 65 hvcurveto
          -24 vlineto
          hintmask 11011110
          -45 callgsubr
          hintmask 11101110
          -82 callsubr
        </CharString>
        <CharString name="D">
          254 0 41 -22 -21 633 40 2 -20 hstemhm
          51 5 callsubr
          hintmask 10101010
          328 671 rmoveto
          -136 hlineto
          hintmask 10011010
          -16 callgsubr
          hintmask 01100110
          9 12 -8 -77 hvcurveto
          -476 10 callgsubr
          -43 hlineto
          -5 -3 -9 -9 -72 callgsubr
          hvcurveto
          hintmask 10101010
          -39 callsubr
          -60 -631 rmoveto
          -25 callsubr
          462 -37 callsubr
          endchar
        </CharString>
        <CharString name="E">
          -71 callgsubr
          hstemhm
          56 22 callgsubr
          246 588 -104 callsubr
          hintmask 10111101
          -101 callgsubr
          -72 callgsubr
          hvcurveto
          hintmask 11011110
          -106 callgsubr
          endchar
        </CharString>
        <CharString name="Eacute">
          -71 callgsubr
          258 -67 callsubr
          -43 callsubr
          hintmask 1101111100000000
          299 739 -99 callgsubr
          -53 -151 -104 callsubr
          hintmask 1011111010000000
          -101 callgsubr
          -72 callgsubr
          hvcurveto
          hintmask 1101111100000000
          -106 callgsubr
          endchar
        </CharString>
        <CharString name="Ecircumflex">
          -71 callgsubr
          244 -20 hstemhm
          143 103 hintmask 00000000
          hintmask 10111111
          246 588 -104 callsubr
          -101 callgsubr
          -72 callgsubr
          hvcurveto
          hintmask 11011111
          -106 callgsubr
          169 412 -107 callsubr
          endchar
        </CharString>
        <CharString name="Edieresis">
          -71 callgsubr
          108 102 -55 callgsubr
          103 -74 19 callgsubr
          -43 callsubr
          hintmask 1101111100100000
          246 588 -104 callsubr
          hintmask 1011111010100000
          -101 callgsubr
          -72 callgsubr
          hvcurveto
          hintmask 1101111100100000
          -106 callgsubr
          -23 437 rmoveto
          hintmask 1101111001100000
          -105 callgsubr
        </CharString>
        <CharString name="Egrave">
          -71 callgsubr
          258 -67 callsubr
          -43 callsubr
          hintmask 1101111100000000
          246 588 -104 callsubr
          hintmask 1011111010000000
          -101 callgsubr
          -72 callgsubr
          hvcurveto
          hintmask 1101111100000000
          -106 callgsubr
          160 387 -102 callgsubr
          endchar
        </CharString>
        <CharString name="Eth">
          273 0 41 -22 -21 336 46 251 40 2 -20 hstemhm
          50 5 callsubr
          hintmask 10110101
          327 671 rmoveto
          -136 hlineto
          hintmask 10101101
          -16 callgsubr
          hintmask 01110011
          9 12 -8 -77 hvcurveto
          -175 -75 vlineto
          4 callgsubr
          38 -257 hlineto
          -35 -7 -11 -34 vhcurveto
          -43 hlineto
          -5 -3 -9 -9 -72 callgsubr
          hvcurveto
          hintmask 10110101
          -39 callsubr
          48 -288 rmoveto
          0 -60 -2 -69 -1 vhcurveto
          210 -37 callsubr
          -82 -1 rlineto
          -25 callsubr
          206 176 vlineto
          -52 callsubr
        </CharString>
        <CharString name="Euro">
          13 -13 22 255 33 80 33 238 24 hstemhm
          78 103 290 25 -22 24 hintmask 00000000
          hintmask 11111010
          312 287 rmoveto
          0 -73 -2 -80 -1 vhcurveto
          -1 17 -1 17 18 vvcurveto
          13 0 13 1 13 vhcurveto
          201 hlineto
          -47 callsubr
          0 -72 -2 -79 -1 vhcurveto
          147 17 65 74 98 hhcurveto
          59 26 -61 0 hvcurveto
          6 -45 rlineto
          -7 1 8 -3 8 hhcurveto
          9 8 3 7 -1 hvcurveto
          -7 47 1 46 50 vvcurveto
          7 -6 2 -7 -8 -8 -3 -6 vhcurveto
          -16 vlineto
          0 -21 24 -71 -104 -119 -108 -160 -40 vhcurveto
          -81 hlineto
          3 callsubr
          35 hlineto
          -3 -23 -2 -24 -24 vvcurveto
          -22 -67 vlineto
          3 callsubr
          34 hlineto
          -144 18 83 -110 149 hhcurveto
          hintmask 11111100
          131 60 95 28 -35 hvcurveto
          -42 -28 -33 -22 -59 hhcurveto
          -106 -60 82 113 -20 hvcurveto
          194 hlineto
          -47 callsubr
          endchar
        </CharString>
        <CharString name="F">
          44 -76 callgsubr
          316 32 286 37 30 -67 callsubr
          hintmask 00000000
          hintmask 10011110
          246 316 rmoveto
          90 -2 93 -9 7 -4 11 -60 rcurveline
          -4 6 -2 7 9 10 3 5 -1 vhcurveto
          -4 31 -1 32 29 vvcurveto
          30 1 23 4 31 20 callgsubr
          -8 3 -8 hhcurveto
          -8 -7 -2 -5 -1 hvcurveto
          -10 -59 -6 -4 -98 -8 -87 -2 rlinecurve
          240 vlineto
          36 9 8 24 2 vhcurveto
          87 -1 54 -7 35 -13 23 -11 8 -34 7 -28 rrcurveto
          -5 1 9 -3 12 callsubr
          8 3 5 -2 hvcurveto
          -8 42 -2 60 50 vvcurveto
          6 -10 callgsubr
          -7 -8 -3 -6 vhcurveto
          -21 -296 vlineto
          -47 -41 2 -38 hhcurveto
          1 callgsubr
          hintmask 10011101
          -101 callgsubr
          hvcurveto
          hintmask 01011110
          -72 callgsubr
          vhcurveto
          hintmask 10011110
          -60 callsubr
          hintmask 00111110
          40 44 -1 42 hhcurveto
          7 1 8 6 12 -3 14 -5 23 callgsubr
          endchar
        </CharString>
        <CharString name="G">
          260 -26 -21 34 45 222 32 353 44 hstem
          46 124 401 115 vstem
          686 209 rmoveto
          35 7 11 34 vhcurveto
          31 -43 callgsubr
          -23 -3 -85 -40 -92 1 -42 -99 callsubr
          106 hlineto
          9 12 -11 -77 hvcurveto
          -92 vlineto
          -30 -29 -47 -12 -44 hhcurveto
          -153 -128 103 201 197 121 106 144 67 60 -28 -51 56 hvcurveto
          7 -44 rlineto
          -6 1 7 -3 12 callsubr
          9 4 6 -1 hvcurveto
          -7 47 -2 54 50 vvcurveto
          6 -8 3 -7 -7 -7 -3 -6 vhcurveto
          -21 vlineto
          22 -55 -38 14 -69 hhcurveto
          -210 -201 -130 -241 -211 178 -114 221 54 77 13 27 62 hvcurveto
          25 7 -74 15 hhcurveto
          13 3 6 6 hvcurveto
          24 -15 16 204 vvcurveto
          endchar
        </CharString>
        <CharString name="H">
          338 -76 callgsubr
          314 41 286 31 3 -67 callsubr
          -103 195 178 190 -103 103 -103 195 -43 callsubr
          hintmask 1001101001000000
          706 -74 callgsubr
          hintmask 1001011000010000
          -51 callsubr
          hintmask 1001101000100000
          9 12 -11 -77 hvcurveto
          -197 -357 240 vlineto
          35 7 11 34 vhcurveto
          43 hlineto
          hintmask 1001010011000000
          -51 callsubr
          hintmask 1001100101000000
          -101 callgsubr
          hvcurveto
          hintmask 0101101001000000
          -72 callgsubr
          vhcurveto
          hintmask 1001101001000000
          -60 callsubr
          hintmask 0011101000100000
          40 44 -97 callgsubr
          11 77 hvcurveto
          193 357 -236 vlineto
          hintmask 1001101001000000
          -35 -7 -11 -34 vhcurveto
          -43 hlineto
          -5 -3 -9 -9 hvcurveto
          hintmask 0101101001000000
          -72 callgsubr
          vhcurveto
          hintmask 1001101001000000
          -60 callsubr
          hintmask 0011101001000000
          -64 callgsubr
        </CharString>
        <CharString name="I">
          -123 -76 callgsubr
          641 31 3 -67 callsubr
          -103 195 hintmask 00000000
          hintmask 10010100
          -63 callgsubr
          hintmask 10001001
          -88 callgsubr
          hintmask 10010100
          -34 callgsubr
          -44 1 -42 hhcurveto
          1 callgsubr
          hintmask 10010010
          -101 callgsubr
          hvcurveto
          hintmask 01010100
          -72 callgsubr
          vhcurveto
          hintmask 10010100
          -60 callsubr
          hintmask 00110100
          -64 callgsubr
        </CharString>
        <CharString name="Iacute">
          -115 -76 callgsubr
          641 31 267 -67 callsubr
          -103 199 hintmask 00000000
          hintmask 10011001
          152 739 -99 callgsubr
          hintmask 10011100
          94 -144 rmoveto
          35 7 11 34 vhcurveto
          43 -43 callgsubr
          -23 -3 -85 -40 -44 1 -42 hhcurveto
          1 callgsubr
          hintmask 10011010
          -101 callgsubr
          hvcurveto
          hintmask 01011100
          -72 callgsubr
          vhcurveto
          hintmask 10011100
          -60 callsubr
          hintmask 00111100
          -64 callgsubr
        </CharString>
        <CharString name="Icircumflex">
          -123 -76 callgsubr
          641 31 253 -67 callsubr
          -103 195 28 callgsubr
          -63 callgsubr
          hintmask 10011001
          -88 callgsubr
          -34 callgsubr
          -44 1 -42 hhcurveto
          hintmask 10011100
          1 callgsubr
          hintmask 10011010
          -101 callgsubr
          hvcurveto
          hintmask 01011100
          -72 callgsubr
          vhcurveto
          hintmask 10011100
          -60 callsubr
          hintmask 00111100
          40 44 -97 callgsubr
          11 77 hvcurveto
          55 643 -107 callsubr
          endchar
        </CharString>
        <CharString name="Idieresis">
          -123 -76 callgsubr
          641 31 117 102 hstemhm
          56 104 -17 103 -21 113 hintmask 00000000
          hintmask 10011010
          -63 callgsubr
          hintmask 10011101
          -88 callgsubr
          -34 callgsubr
          -44 1 -42 hhcurveto
          1 callgsubr
          hintmask 10011010
          -101 callgsubr
          hvcurveto
          hintmask 01011101
          -72 callgsubr
          vhcurveto
          hintmask 10011101
          -60 callsubr
          hintmask 00111010
          40 44 -97 callgsubr
          11 77 hvcurveto
          -137 668 rmoveto
          hintmask 10011101
          -105 callgsubr
        </CharString>
        <CharString name="Igrave">
          -123 -76 callgsubr
          641 31 267 -63 callsubr
          195 28 callgsubr
          -63 callgsubr
          hintmask 10011010
          -88 callgsubr
          -34 callgsubr
          -44 1 -42 hhcurveto
          hintmask 10011100
          1 callgsubr
          hintmask 10011010
          -101 callgsubr
          hvcurveto
          hintmask 01011100
          -72 callgsubr
          vhcurveto
          hintmask 10011100
          -60 callsubr
          hintmask 00111100
          40 44 -97 callgsubr
          11 77 hvcurveto
          30 618 -102 callgsubr
          endchar
        </CharString>
        <CharString name="J">
          -141 -273 65 849 31 3 -20 hstemhm
          152 103 28 callsubr
          152 123 -65 callgsubr
          463 vlineto
          35 7 11 34 vhcurveto
          43 -7 callgsubr
          hintmask 10110000
          -24 callgsubr
          hintmask 11010000
          -34 callgsubr
          -44 1 -42 -82 callgsubr
          endchar
        </CharString>
        <CharString name="K">
          205 -76 callgsubr
          641 31 3 -67 callsubr
          92 176 hintmask 00000000
          hintmask 10010101
          -63 callgsubr
          5 3 9 9 hvcurveto
          hintmask 10001101
          -24 callgsubr
          hintmask 10010101
          -34 callgsubr
          -44 1 -42 hhcurveto
          1 callgsubr
          hintmask 10010011
          -101 callgsubr
          hvcurveto
          hintmask 01010101
          -72 callgsubr
          vhcurveto
          hintmask 10010101
          -60 callsubr
          hintmask 00110101
          40 44 -97 callgsubr
          11 77 hvcurveto
          206 38 vlineto
          77 -79 111 -120 56 -60 rrcurveto
          7 -7 4 -8 -6 vvcurveto
          hintmask 10010101
          -9 -9 -6 -16 vhcurveto
          -16 hlineto
          -5 -4 -8 -7 hvcurveto
          hintmask 01010101
          -9 2 -10 7 vhcurveto
          hintmask 10010101
          37 75 3 46 hhcurveto
          hintmask 00110101
          21 47 -1 28 hhcurveto
          7 4 9 9 8 -6 11 -7 3 hvcurveto
          -38 hlineto
          -17 -40 37 76 -75 hvcurveto
          -223 226 rlineto
          4 vlineto
          39 32 102 90 69 67 rrcurveto
          51 53 20 17 10 hhcurveto
          36 hlineto
          5 4 8 8 8 -3 9 -5 hvcurveto
          -29 -56 -2 -24 -33 -47 2 -28 hhcurveto
          -4 -3 -9 -8 -9 4 -6 3 hvcurveto
          28 hlineto
          12 4 -7 -10 -21 -48 -59 -187 -180 hvcurveto
          -33 hlineto
          endchar
        </CharString>
        <CharString name="L">
          70 -8 -21 29 40 -21 -21 643 31 3 -20 hstemhm
          56 22 callsubr
          -63 callgsubr
          5 3 9 9 hvcurveto
          hintmask 11001100
          -24 callgsubr
          hintmask 11010100
          -34 callgsubr
          -44 1 -42 hhcurveto
          1 callgsubr
          hintmask 10110010
          -101 callgsubr
          -72 callgsubr
          hvcurveto
          hintmask 11010100
          32 23 2 85 hhcurveto
          325 -22 hlineto
          -5 8 -2 8 8 7 2 5 51 2 58 7 50 20 callgsubr
          -7 2 -8 hhcurveto
          -9 -9 -3 -5 -1 hvcurveto
          -7 -55 rlineto
          -27 -39 -89 -15 -92 hhcurveto
          -58 hlineto
          endchar
        </CharString>
        <CharString name="Lslash">
          111 -8 -21 29 40 -21 -21 643 31 3 -20 hstemhm
          97 22 callsubr
          287 -74 callgsubr
          5 3 9 9 hvcurveto
          hintmask 11001100
          -24 callgsubr
          hintmask 11010100
          -34 callgsubr
          -44 1 -42 hhcurveto
          1 callgsubr
          hintmask 10110010
          9 12 -11 -77 hvcurveto
          -244 vlineto
          -16 -8 -82 -44 -16 -11 -15 -8 9 -40 13 5 10 7 70 47 27 17 rrcurveto
          -195 10 callgsubr
          -43 hlineto
          -5 -3 -9 -9 -72 callgsubr
          hvcurveto
          hintmask 11010100
          32 23 2 85 hhcurveto
          325 -22 hlineto
          -5 8 -2 8 8 7 2 5 51 2 58 7 50 20 callgsubr
          -7 2 -8 hhcurveto
          -9 -9 -3 -5 -1 hvcurveto
          -7 -55 rlineto
          -27 -39 -89 -15 -92 hhcurveto
          -58 293 hlineto
          117 80 17 12 -9 35 -9 -6 rlinecurve
          -116 -84 rlineto
          endchar
        </CharString>
        <CharString name="M">
          456 -76 callgsubr
          641 30 2 -20 21 -20 hstemhm
          169 50 hintmask 00000000
          hintmask 10010010
          474 14 rmoveto
          41 84 138 325 49 108 rrcurveto
          4 hlineto
          1 -72 28 -332 4 -63 rrcurveto
          -22 2 -11 -10 -25 hhcurveto
          -38 hlineto
          -6 -2 -8 -8 hvcurveto
          hintmask 01010010
          -8 2 -10 6 vhcurveto
          hintmask 10010010
          20 77 3 34 hhcurveto
          hintmask 00110010
          26 73 -1 32 hhcurveto
          7 4 8 9 8 -4 8 -7 hvcurveto
          -63 hlineto
          -14 -6 30 28 -3 hvcurveto
          -17 142 -32 331 -1 28 rrcurveto
          33 -1 6 16 26 hhcurveto
          38 hlineto
          hintmask 10000110
          6 3 6 7 8 -4 12 -5 hvcurveto
          hintmask 10010010
          -36 -70 -3 -62 hhcurveto
          -37 -122 -93 -212 -83 -211 rrcurveto
          -4 hlineto
          -65 185 -114 304 -16 56 rrcurveto
          hintmask 10001010
          -64 -81 2 -44 hhcurveto
          -5 -3 -10 -8 hvcurveto
          hintmask 10010010
          -10 callgsubr
          5 vhcurveto
          50 hlineto
          19 8 -21 -71 -1 hvcurveto
          -1 -49 -39 -363 -13 -78 rrcurveto
          -26 -5 -14 -1 -32 hhcurveto
          -33 hlineto
          -6 -3 -9 -8 hvcurveto
          hintmask 01010010
          -8 3 -9 6 vhcurveto
          hintmask 10010010
          21 53 3 52 hhcurveto
          hintmask 00110010
          33 23 -1 49 hhcurveto
          9 4 9 8 8 -4 8 -9 hvcurveto
          -44 hlineto
          -16 -10 20 70 1 hvcurveto
          1 70 9 135 15 212 rrcurveto
          4 hlineto
          45 -129 135 -341 36 -56 rrcurveto
          -6 3 7 -2 7 hhcurveto
          7 7 2 6 4 hvcurveto
          endchar
        </CharString>
        <CharString name="N">
          -6 callsubr
          -1 23 callsubr
          hintmask 00000000
          hintmask 01001011
          647 -12 -65 callsubr
          hhcurveto
          hintmask 10000111
          -69 callsubr
          hvcurveto
          hintmask 10001011
          15 callgsubr
          vhcurveto
          -2 callsubr
          -4 callgsubr
          hintmask 00101011
          -8 2 -9 5 vhcurveto
          hintmask 10001011
          28 46 3 45 hhcurveto
          hintmask 00011011
          -66 callgsubr
        </CharString>
        <CharString name="Ntilde">
          -6 callsubr
          155 63 -50 50 -50 63 62 23 callsubr
          -43 callsubr
          hintmask 1000101011100000
          278 773 rmoveto
          62 12 34 7 38 hhcurveto
          hintmask 1000110011100000
          41 29 -13 40 hhcurveto
          44 50 17 103 4 hvcurveto
          12 1 -8 6 -8 hhcurveto
          -5 -5 -2 -6 -1 hvcurveto
          -67 -12 -33 0 -43 hhcurveto
          hintmask 0100100111100000
          -37 -29 13 -43 hhcurveto
          -40 -52 -22 -99 -4 hvcurveto
          -12 9 -7 8 5 4 3 5 1 vhcurveto
          369 -785 -65 callsubr
          -69 callsubr
          15 callgsubr
          hvcurveto
          -2 callsubr
          hintmask 1000110011100000
          -4 callgsubr
          hintmask 0010110011100000
          -8 2 -9 5 vhcurveto
          hintmask 1000110011100000
          28 46 3 45 hhcurveto
          hintmask 0001110011100000
          -66 callgsubr
        </CharString>
        <CharString name="O">
          -40 callgsubr
          -13 callgsubr
          412 684 -103 callgsubr
          endchar
        </CharString>
        <CharString name="OE">
          596 -13 27 -14 23 305 27 123 -20 175 27 -15 27 hstemhm
          49 125 476 125 192 103 163 23 89 23 -43 callsubr
          hintmask 0111101111100000
          412 684 rmoveto
          -200 -164 -156 -192 hvcurveto
          hintmask 1011101111100000
          -194 164 -155 200 82 67 22 42 63 vhcurveto
          0 244 -6 145 -34 vhcurveto
          -2 -28 rlineto
          -5 8 -2 8 8 7 2 5 vhcurveto
          2 53 6 62 9 40 rrcurveto
          6 1 -7 2 -8 hhcurveto
          -9 -9 -3 -5 -1 hvcurveto
          -5 -33 -60 -12 -64 -15 -220 19 rlinecurve
          43 46 50 58 5 119 90 -2 87 -22 7 -4 9 -46 rcurveline
          -4 6 -2 7 9 10 3 5 -1 vhcurveto
          -4 31 -1 32 29 vvcurveto
          30 2 25 4 31 20 callgsubr
          -8 3 -8 hhcurveto
          -8 -7 -2 -5 -1 hvcurveto
          -10 -55 -6 -4 -90 -12 -87 -2 rlinecurve
          -4 91 -56 105 -81 62 99 13 209 -23 50 -17 rrcurveto
          0 15 -19 7 -21 vhcurveto
          -12 4 5 -1 12 callsubr
          8 3 5 -2 hvcurveto
          -6 40 -9 71 -3 53 rrcurveto
          6 -10 callgsubr
          -7 -8 0 -6 vhcurveto
          -2 -35 rlineto
          hintmask 0111011111100000
          -418 -28 rlineto
          0 -47 39 -120 vhcurveto
          -46 vmoveto
          142 96 -135 -167 -169 -96 -134 -142 -142 -96 134 169 167 96 135 142 hvcurveto
          endchar
        </CharString>
        <CharString name="Oacute">
          -40 callgsubr
          255 7 callsubr
          395 739 -99 callgsubr
          17 -55 -103 callgsubr
          endchar
        </CharString>
        <CharString name="Ocircumflex">
          -40 callgsubr
          241 7 callsubr
          412 684 -103 callgsubr
          128 126 -107 callsubr
          endchar
        </CharString>
        <CharString name="Odieresis">
          -40 callgsubr
          105 102 hstem
          48 126 103 19 callgsubr
          104 126 vstem
          412 684 -103 callgsubr
          -84 151 rmoveto
          -105 callgsubr
        </CharString>
        <CharString name="Ograve">
          -40 callgsubr
          255 7 callsubr
          412 684 -103 callgsubr
          94 101 -102 callgsubr
          endchar
        </CharString>
        <CharString name="Oslash">
          317 -116 -21 124 46 605 46 82 7 callsubr
          696 749 -26 callsubr
          -57 -105 rlineto
          27 -51 -60 16 -62 hhcurveto
          -200 -164 -156 -192 -139 84 -118 120 -57 hvcurveto
          -76 -142 -57 callsubr
          63 118 rlineto
          -12 37 39 -6 41 hhcurveto
          200 164 155 194 115 -60 103 -91 63 hvcurveto
          -213 21 rmoveto
          55 48 -21 -35 39 hvcurveto
          -272 -504 rlineto
          -67 53 -41 95 110 vvcurveto
          167 96 135 142 vhcurveto
          238 -302 rmoveto
          -169 -96 -134 -142 -33 -30 7 13 -28 vhcurveto
          266 493 rlineto
          40 -54 23 -74 -82 vvcurveto
          endchar
        </CharString>
        <CharString name="Otilde">
          -40 callgsubr
          145 26 callgsubr
          -17 callgsubr
          hintmask 00000000
          hintmask 11010111
          412 684 -103 callgsubr
          -140 135 -31 callsubr
          hhcurveto
          hintmask 11100111
          -91 callgsubr
          hhcurveto
          hintmask 11001111
          -88 callsubr
        </CharString>
        <CharString name="P">
          90 -76 callgsubr
          307 50 274 40 2 -67 callsubr
          216 108 -43 callsubr
          hintmask 1001101010000000
          246 331 rmoveto
          -17 39 36 -7 32 hhcurveto
          133 84 96 92 90 -78 86 -187 hvcurveto
          -115 hlineto
          hintmask 1001011010000000
          -29 -42 2 -55 hhcurveto
          1 callgsubr
          hintmask 1001100110000000
          -101 callgsubr
          hvcurveto
          hintmask 0101101010000000
          -72 callgsubr
          vhcurveto
          hintmask 1001101010000000
          -60 callsubr
          40 hlineto
          hintmask 0011101010000000
          14 15 -1 14 hhcurveto
          43 hlineto
          8 2 6 8 9 -3 10 -7 23 callgsubr
          216 366 2 callgsubr
          222 vlineto
          36 11 10 25 124 56 -73 -71 vhcurveto
          endchar
        </CharString>
        <CharString name="Q">
          317 -251 99 139 46 605 46 -13 callgsubr
          1063 -89 rmoveto
          -43 -41 -32 -20 -51 hhcurveto
          -162 -104 155 -1 -155 hvcurveto
          149 43 109 132 159 vvcurveto
          192 -164 156 -200 -200 -164 -156 -192 -194 164 -155 200 vhcurveto
          -16 188 114 -222 187 hhcurveto
          93 57 94 52 34 hvcurveto
          7 11 -20 15 -9 -10 rrcurveto
          -651 727 rmoveto
          142 96 -135 -167 -169 -96 -134 -142 -142 -96 134 169 167 96 135 142 hvcurveto
          endchar
        </CharString>
        <CharString name="R">
          131 -13 45 -45 57 -43 31 -13 -21 23 -21 631 40 2 -67 callsubr
          216 108 -43 callsubr
          hintmask 1000010101000000
          396 329 rmoveto
          96 21 78 58 89 vvcurveto
          90 -78 84 -187 vhcurveto
          -115 hlineto
          hintmask 1000001101000000
          -29 -42 2 -55 hhcurveto
          1 callgsubr
          hintmask 1000010011000000
          -101 callgsubr
          hvcurveto
          hintmask 0001010101000000
          -72 callgsubr
          vhcurveto
          hintmask 0010010101000000
          -60 callsubr
          hintmask 0000110101000000
          40 44 -97 callgsubr
          11 77 hvcurveto
          205 vlineto
          11 -2 12 -2 12 -1 3 -2 4 -2 108 12 rrcurveto
          66 158 2 callgsubr
          227 vlineto
          27 10 14 29 121 56 -74 -70 vhcurveto
          204 -417 rmoveto
          hintmask 0100010101000000
          -13 -14 -12 -13 -21 hhcurveto
          -112 3 260 29 -165 hvcurveto
          -64 -12 rlineto
          -56 114 28 -278 151 hhcurveto
          50 38 40 30 21 hvcurveto
          5 7 -14 13 -8 -7 rrcurveto
          endchar
        </CharString>
        <CharString name="S">
          31 -13 38 -24 -21 666 38 18 -20 hstemhm
          46 131 -100 100 208 105 hintmask 00000000
          hintmask 10100110
          -19 callsubr
          91 26 -65 -49 14 vhcurveto
          -23 callgsubr
          hintmask 10011010
          -54 callsubr
          hintmask 10100110
          -58 callsubr
          hintmask 01101010
          -42 callsubr
          hintmask 10101010
          -9 callsubr
          endchar
        </CharString>
        <CharString name="Scaron">
          31 -13 27 631 27 91 147 hstemhm
          27 11 4 81 21 279 -41 94 -62 13 hintmask 00000000
          hintmask 11111010
          -19 callsubr
          vhcurveto
          hintmask 11111100
          91 26 -65 -49 14 hvcurveto
          -23 callgsubr
          hintmask 11111001
          -54 callsubr
          -58 callsubr
          -42 callsubr
          -9 callsubr
          -315 34 callgsubr
          6 -7 -6 callgsubr
          hintmask 11111100
          -87 callgsubr
          -77 callgsubr
        </CharString>
        <CharString name="T">
          96 -76 callgsubr
          531 170 -72 42 hstemhm
          250 103 hintmask 00000000
          hintmask 10001100
          353 583 rmoveto
          32 6 12 28 2 vhcurveto
          65 -1 56 -2 46 -12 26 -8 10 -39 5 -27 rrcurveto
          hintmask 10010100
          -7 1 7 -2 7 hhcurveto
          8 11 3 6 -1 hvcurveto
          -7 41 -1 60 51 vvcurveto
          5 -12 4 -8 -6 -6 -3 -6 vhcurveto
          -19 vlineto
          hintmask 10001100
          -1 -34 -43 -1 -72 hhcurveto
          -299 hlineto
          -56 -35 1 1 -34 hvcurveto
          19 vlineto
          hintmask 10010100
          6 -6 3 -6 -8 -12 -4 -5 -51 -1 -60 -7 -41 vhcurveto
          -6 -1 11 -3 8 hhcurveto
          7 7 2 7 1 hvcurveto
          5 27 10 39 26 8 rrcurveto
          hintmask 10001100
          11 45 53 4 62 hhcurveto
          21 hlineto
          12 8 -29 -59 hvcurveto
          -463 -57 callgsubr
          hintmask 01010100
          -72 callgsubr
          vhcurveto
          hintmask 10010100
          -60 callsubr
          hintmask 00110100
          -64 callgsubr
        </CharString>
        <CharString name="Thorn">
          76 -76 callgsubr
          172 50 274 40 105 31 3 -20 hstemhm
          56 186 -99 99 -99 197 108 108 -43 callsubr
          hintmask 1001110001100000
          260 595 rmoveto
          37 3 5 9 34 hhcurveto
          30 -7 callgsubr
          hintmask 1001101100100000
          -24 callgsubr
          hintmask 1001110100100000
          -32 -25 -3 -85 -40 -44 1 -42 hhcurveto
          1 callgsubr
          hintmask 1001110010100000
          -101 callgsubr
          hvcurveto
          hintmask 0101110100100000
          -72 callgsubr
          vhcurveto
          hintmask 1001110100100000
          -60 callsubr
          hintmask 0011110100100000
          40 40 -97 callgsubr
          11 77 hvcurveto
          75 vlineto
          -18 40 42 -6 29 hhcurveto
          123 80 97 92 90 -74 85 -177 hvcurveto
          -49 hlineto
          2 36 2 23 0 vvcurveto
          188 -242 rmoveto
          -68 -52 -63 -97 -18 -22 2 4 -17 vhcurveto
          2 93 4 87 4 69 rrcurveto
          13 15 6 15 114 52 -72 -71 vhcurveto
          endchar
        </CharString>
        <CharString name="U">
          -32 callsubr
          3 -20 hstemhm
          132 103 366 57 hintmask 00000000
          hintmask 11011000
          -67 callgsubr
          hvcurveto
          hintmask 10111000
          -24 callgsubr
          hintmask 11011000
          -98 callgsubr
          hvcurveto
          hintmask 10111000
          -24 callgsubr
          hintmask 11011000
          -97 callsubr
          endchar
        </CharString>
        <CharString name="Uacute">
          -20 callgsubr
          391 739 -99 callgsubr
          276 -144 rmoveto
          35 2 6 11 34 hhcurveto
          30 hlineto
          5 3 9 9 8 -2 8 -6 hvcurveto
          -98 callgsubr
          8 -2 8 -6 hvcurveto
          -97 callsubr
          endchar
        </CharString>
        <CharString name="Ucircumflex">
          -32 callsubr
          253 -20 hstem
          132 103 366 57 vstem
          -67 callgsubr
          8 -2 8 -6 hvcurveto
          -98 callgsubr
          8 -2 8 -6 hvcurveto
          -97 callsubr
          -128 169 -107 callsubr
          endchar
        </CharString>
        <CharString name="Udieresis">
          -32 callsubr
          117 102 hstem
          132 103 61 19 callgsubr
          36 57 vstem
          -67 callgsubr
          8 -2 8 -6 hvcurveto
          -98 callgsubr
          8 -2 8 -6 hvcurveto
          -97 callsubr
          -320 194 rmoveto
          -105 callgsubr
        </CharString>
        <CharString name="Ugrave">
          -20 callgsubr
          -67 callgsubr
          8 -2 8 -6 hvcurveto
          -98 callgsubr
          8 -2 8 -6 hvcurveto
          -97 callsubr
          -191 144 -102 callgsubr
          endchar
        </CharString>
        <CharString name="V">
          124 0 -21 663 31 hstem
          328 -12 rmoveto
          57 126 108 -72 callsubr
          -59 -189 -94 -260 rrcurveto
          -4 hlineto
          -45 138 -91 -86 callsubr
          127 -355 85 -209 26 -61 rrcurveto
          -6 3 9 -3 9 hhcurveto
          10 10 3 6 3 hvcurveto
          endchar
        </CharString>
        <CharString name="W">
          508 0 -21 663 31 hstem
          704 -12 rmoveto
          57 126 109 -72 callsubr
          -58 -189 -94 -260 rrcurveto
          -4 hlineto
          -45 138 -87 -86 callsubr
          14 -40 13 -37 13 -36 -27 -87 -48 -141 -62 -172 rrcurveto
          -4 hlineto
          -45 138 -91 -86 callsubr
          127 -355 85 -209 26 -61 rrcurveto
          -6 3 9 -3 9 hhcurveto
          10 10 3 6 3 hvcurveto
          40 89 64 178 65 167 87 -240 57 -145 21 -49 rrcurveto
          -6 3 9 -3 9 hhcurveto
          10 8 3 6 3 hvcurveto
          endchar
        </CharString>
        <CharString name="X">
          223 0 33 -14 -21 644 29 2 -46 callgsubr
          hintmask 10100000
          609 1 rmoveto
          25 75 -1 38 hhcurveto
          6 5 9 9 8 -4 7 -7 hvcurveto
          -49 hlineto
          -16 -42 51 124 -105 hvcurveto
          -39 47 -43 51 -41 51 98 109 88 96 62 52 rrcurveto
          11 13 20 17 14 hhcurveto
          47 hlineto
          6 3 5 7 hvcurveto
          hintmask 10010000
          8 -4 11 -5 vhcurveto
          hintmask 10100000
          -29 -59 -2 -35 hhcurveto
          hintmask 10010000
          -27 -54 2 -35 hhcurveto
          -5 -3 -9 -7 -8 3 -8 5 hvcurveto
          37 hlineto
          3 2 -2 -5 -8 -5 -16 -18 -27 hvcurveto
          -12 -18 -39 -52 -102 -118 rrcurveto
          -85 109 -90 114 14 vvcurveto
          hintmask 10100000
          5 3 5 7 vhcurveto
          48 hlineto
          4 2 6 8 hvcurveto
          hintmask 10010000
          8 -2 9 -4 vhcurveto
          hintmask 10100000
          -27 -73 -2 -39 hhcurveto
          hintmask 01010000
          -34 -65 2 -27 hhcurveto
          -4 -2 -11 -8 -7 2 -6 4 hvcurveto
          14 hlineto
          41 21 -14 -36 30 hvcurveto
          11 -12 102 -125 100 -126 -119 -132 -87 -93 -55 -51 rrcurveto
          -12 -13 -13 -9 -18 hhcurveto
          -37 hlineto
          -6 -4 -9 -7 -8 1 -9 9 hvcurveto
          30 41 3 38 hhcurveto
          hintmask 10100000
          59 38 -1 37 hhcurveto
          5 3 7 7 8 -3 8 -5 hvcurveto
          -50 hlineto
          -12 32 61 72 55 hvcurveto
          29 37 36 42 41 46 76 -96 71 -92 24 -35 rrcurveto
          6 -8 3 -7 -6 vvcurveto
          -7 19 callsubr
          vhcurveto
          -34 hlineto
          -5 -3 -9 -8 hvcurveto
          hintmask 01100000
          -8 3 -9 5 vhcurveto
          27 52 3 53 hhcurveto
          endchar
        </CharString>
        <CharString name="Y">
          99 -76 callgsubr
          640 33 9 callsubr
          hintmask 10011000
          256 302 -15 callgsubr
          hintmask 01011000
          -72 callgsubr
          vhcurveto
          hintmask 10011000
          31 callgsubr
          hintmask 00111000
          39 43 -97 callgsubr
          14 58 hvcurveto
          216 vlineto
          49 174 184 84 70 vhcurveto
          -103 callsubr
          56 -65 146 -170 -1 -40 rrcurveto
          endchar
        </CharString>
        <CharString name="Yacute">
          99 -76 callgsubr
          640 33 266 -20 9 callsubr
          hintmask 10011100
          318 739 -99 callgsubr
          -62 -437 -15 callgsubr
          hintmask 01011100
          -72 callgsubr
          vhcurveto
          hintmask 10011100
          31 callgsubr
          hintmask 00111100
          39 43 -97 callgsubr
          14 58 hvcurveto
          216 vlineto
          49 174 184 84 70 vhcurveto
          -103 callsubr
          56 -65 146 -170 -1 -40 rrcurveto
          endchar
        </CharString>
        <CharString name="Ydieresis">
          99 -76 callgsubr
          640 33 115 102 hstemhm
          168 102 -14 99 -20 102 hintmask 00000000
          hintmask 10011010
          256 302 -15 callgsubr
          hintmask 01011101
          -72 callgsubr
          vhcurveto
          hintmask 10011101
          31 callgsubr
          hintmask 00111010
          39 43 -97 callgsubr
          14 58 hvcurveto
          216 vlineto
          49 174 184 84 70 vhcurveto
          -103 callsubr
          56 -65 146 -170 -1 -40 rrcurveto
          -37 486 rmoveto
          hintmask 10011101
          -105 callgsubr
        </CharString>
        <CharString name="Z">
          18 callsubr
          26 -93 callsubr
          endchar
        </CharString>
        <CharString name="Zcaron">
          18 callsubr
          246 -20 21 -93 callsubr
          188 910 rmoveto
          6 -7 -6 callgsubr
          -87 callgsubr
          hintmask 10101000
          -77 callgsubr
        </CharString>
        <CharString name="a">
          -79 callsubr
          -60 callgsubr
          hintmask 1001010100000000
          -94 callgsubr
          hintmask 0100110100000000
          -96 callsubr
          hintmask 0011010010000000
          -83 callgsubr
          hintmask 0101010100000000
          -83 callsubr
          hintmask 1001001100000000
          -91 callsubr
          endchar
        </CharString>
        <CharString name="aacute">
          -79 callsubr
          286 -20 hstemhm
          43 76 174 82 -82 171 -43 callsubr
          hintmask 1001011100000000
          -94 callgsubr
          hintmask 0100111100000000
          -96 callsubr
          hintmask 0011011010000000
          -83 callgsubr
          hintmask 0101011100000000
          -83 callsubr
          hintmask 1001011100000000
          -91 callsubr
          -9 494 -99 callgsubr
          endchar
        </CharString>
        <CharString name="acircumflex">
          -79 callsubr
          241 -20 -60 callgsubr
          hintmask 1001011010000000
          -94 callgsubr
          hintmask 0100111010000000
          -96 callsubr
          hintmask 0011011001000000
          -83 callgsubr
          hintmask 0101011010000000
          -83 callsubr
          hintmask 1001010110000000
          -91 callsubr
          162 488 -107 callsubr
          endchar
        </CharString>
        <CharString name="acute">
          15 callsubr
          111 536 -99 callgsubr
          endchar
        </CharString>
        <CharString name="adieresis">
          -79 callsubr
          105 102 hstemhm
          43 76 -76 95 -37 102 65 107 -82 82 -82 171 -43 callsubr
          hintmask 1001011000100000
          -94 callgsubr
          hintmask 0100111000100000
          -96 callsubr
          hintmask 0011011000010000
          -83 callgsubr
          hintmask 0101011000100000
          -83 callsubr
          hintmask 1001010101000000
          -91 callsubr
          -30 513 rmoveto
          hintmask 1001010011000000
          -105 callgsubr
        </CharString>
        <CharString name="ae">
          228 -13 55 -55 85 170 207 -155 155 -54 54 -32 32 1 -25 callgsubr
          69 243 85 -43 callsubr
          hintmask 1001000101100000
          656 250 rmoveto
          27 33 callsubr
          21 vvcurveto
          103 -69 66 -85 -59 -64 -29 -50 -45 vhcurveto
          -3 hlineto
          hintmask 1000001101100000
          59 -17 -53 21 -75 hhcurveto
          -78 -99 -46 -63 hvcurveto
          hintmask 1001000101100000
          -33 27 -14 23 10 12 3 7 5 vhcurveto
          -1 8 0 7 7 vvcurveto
          hintmask 1000010101100000
          62 41 29 48 62 23 -58 -66 -8 -1 -15 -1 -17 vhcurveto
          -151 -45 -95 -68 -78 vvcurveto
          -50 37 -25 53 71 70 41 117 37 vhcurveto
          3 hlineto
          -87 25 76 -71 99 hhcurveto
          136 45 108 17 8 -4 4 -7 hvcurveto
          hintmask 0110000101100000
          -18 -16 -52 -110 hhcurveto
          -77 -103 45 125 20 callsubr
          8 97 -5 69 5 rrcurveto
          hintmask 1000100011100000
          -92 callsubr
          -327 -353 rmoveto
          -31 -13 19 28 47 33 44 120 44 hvcurveto
          -118 -5 -53 -64 -51 hhcurveto
          endchar
        </CharString>
        <CharString name="agrave">
          -79 callsubr
          287 -20 -60 callgsubr
          hintmask 1001011010000000
          -94 callgsubr
          hintmask 0100111001000000
          -96 callsubr
          hintmask 0011011001000000
          -83 callgsubr
          hintmask 0101011010000000
          -83 callsubr
          hintmask 1001010101000000
          -91 callsubr
          137 495 -102 callgsubr
          endchar
        </CharString>
        <CharString name="ampersand">
          313 -13 62 -62 75 -75 101 313 28 207 36 hstemhm
          31 90 30 79 131 79 hintmask 00000000
          hintmask 10011111
          755 402 rmoveto
          7 2 6 7 8 -3 9 -6 hvcurveto
          -30 -46 -3 -41 -35 -29 2 -43 hhcurveto
          -6 -2 -8 -8 -7 2 -7 6 hvcurveto
          41 hlineto
          13 7 -19 -17 -42 -41 -78 -70 -70 hvcurveto
          -68 62 -67 74 -47 72 rrcurveto
          69 50 72 53 73 vvcurveto
          62 -51 51 -81 -69 -88 -44 -100 -43 21 -57 35 -61 vhcurveto
          -86 -63 -90 -65 -112 vvcurveto
          -99 78 -41 77 87 87 44 59 78 vhcurveto
          -62 73 76 -41 61 hhcurveto
          84 61 69 20 hvcurveto
          hintmask 00111111
          7 -3 5 -10 vhcurveto
          hintmask 10011111
          -19 -8 -39 -53 hhcurveto
          -50 -66 39 60 -72 hvcurveto
          84 80 62 94 26 53 rrcurveto
          11 5 8 16 15 hhcurveto
          hintmask 01011111
          -464 -340 rmoveto
          -64 -63 33 81 66 47 49 58 44 hvcurveto
          47 -75 65 -79 69 -63 rrcurveto
          -34 -50 -54 -22 -55 hhcurveto
          -18 492 rmoveto
          54 32 28 36 45 18 -26 -44 -60 -34 -48 -48 -41 vhcurveto
          -29 50 -20 50 37 vvcurveto
          endchar
        </CharString>
        <CharString name="aring">
          -79 callsubr
          75 29 124 28 hstemhm
          43 76 -76 95 -12 34 119 34 -20 82 -82 171 -43 callsubr
          hintmask 1001011101010000
          -94 callgsubr
          hintmask 0100111101010000
          -96 callsubr
          hintmask 0011011101001000
          -83 callgsubr
          hintmask 0101011101010000
          -83 callsubr
          hintmask 1001011010100000
          -91 callsubr
          37 483 -13 callsubr
          hvcurveto
          hintmask 1001011101100000
          -75 callgsubr
        </CharString>
        <CharString name="asciicircum">
          13 272 -21 437 -20 hstem
          258 589 rmoveto
          2 hlineto
          0 158 -308 13 -30 vhcurveto
          23 1 20 3 14 vvcurveto
          7 -4 11 -5 9 vhcurveto
          0 -119 237 -37 77 vhcurveto
          46 -22 -15 32 -11 hhcurveto
          -10 -13 -31 -47 -22 hvcurveto
          -37 -77 -144 -279 0 vvcurveto
          -2 7 6 -1 6 hhcurveto
          21 16 14 19 12 hvcurveto
          endchar
        </CharString>
        <CharString name="asciitilde">
          -49 185 63 6 65 hstem
          -91 496 vstem
          63 166 rmoveto
          58 11 47 29 52 32 33 -12 36 hhcurveto
          84 46 63 74 11 -7 5 -8 -5 -5 -2 -6 -1 hvcurveto
          -60 -11 -45 -24 -53 -27 -32 8 -34 hhcurveto
          -84 -53 -54 -79 -3 hvcurveto
          -12 9 -7 8 5 4 3 5 1 vhcurveto
          endchar
        </CharString>
        <CharString name="asterisk">
          -7 290 -21 404 -20 hstemhm
          64 202 -37 37 -37 203 28 callsubr
          74 397 rmoveto
          hintmask 11100000
          -7 -3 -3 -7 -6 vvcurveto
          -12 10 -13 13 3 3 0 2 3 vhcurveto
          137 88 -7 -160 rlineto
          -12 11 -5 11 8 14 3 12 vhcurveto
          -7 165 131 -87 rlineto
          -2 4 4 -1 4 hhcurveto
          hintmask 11001000
          14 12 13 13 7 -4 7 -8 5 hvcurveto
          -142 69 141 72 rlineto
          8 4 3 7 6 vvcurveto
          10 -9 10 -11 -3 -3 -1 -2 -4 vhcurveto
          -136 -84 rlineto
          3 103 4 44 13 vvcurveto
          12 -9 6 -10 -10 -14 -6 -9 vhcurveto
          0 4 -81 -81 vvcurveto
          -127 92 rlineto
          2 -3 -4 1 -3 hhcurveto
          -14 -12 -15 -14 -6 2 -7 7 -4 hvcurveto
          141 -74 rlineto
          endchar
        </CharString>
        <CharString name="at">
          349 -169 43 113 55 -55 70 -42 -21 390 46 119 39 hstemhm
          71 54 96 95 157 72 -72 149 -135 85 179 57 -43 callsubr
          hintmask 1010111100110000
          430 430 rmoveto
          -195 -164 -151 -192 -170 127 -86 164 288 158 211 199 178 -126 169 -275 -56 -86 -14 -23 -60 hvcurveto
          -11 -4 -9 -7 -9 vvcurveto
          -9 4 -6 8 vhcurveto
          15 46 33 120 hhcurveto
          253 120 -164 -166 -171 -128 -174 -240 -131 -127 76 146 176 152 112 137 54 19 -34 -53 -19 -1 -12 -2 -13 hvcurveto
          -155 -45 -108 -71 -83 vvcurveto
          -45 33 -22 50 73 67 49 64 28 vhcurveto
          3 hlineto
          hintmask 1001111101010000
          -1 -8 -1 -9 -7 vvcurveto
          -55 24 -27 36 45 42 41 33 2 vhcurveto
          7 -4 3 -5 vhcurveto
          hintmask 1010111110010000
          -10 -7 -21 -20 hhcurveto
          -19 -12 11 39 hvcurveto
          hintmask 1100111100110000
          47 27 103 64 vvcurveto
          79 -54 30 -88 vhcurveto
          -74 -388 rmoveto
          -29 -11 16 25 51 41 46 124 44 hvcurveto
          -118 -15 -59 -64 -51 hhcurveto
          endchar
        </CharString>
        <CharString name="atilde">
          -79 callsubr
          140 71 -58 58 -58 71 65 -20 -60 callgsubr
          hintmask 1001010011010000
          -94 callgsubr
          hintmask 0100110011010000
          -96 callsubr
          hintmask 0011010011001000
          -83 callgsubr
          hintmask 0101010011010000
          -83 callsubr
          hintmask 1001001010110000
          -91 callsubr
          -87 492 -31 callsubr
          hhcurveto
          hintmask 1001010011010000
          -91 callgsubr
          hhcurveto
          hintmask 1001000111010000
          -88 callsubr
        </CharString>
        <CharString name="b">
          66 -26 -21 34 36 366 61 4 callsubr
          hstem
          89 85 260 100 vstem
          174 376 rmoveto
          148 1 174 37 -94 callsubr
          -293 vlineto
          -294 -15 -8 -24 vvcurveto
          -6 3 -6 13 vhcurveto
          15 16 91 25 hhcurveto
          2 hlineto
          27 21 -57 106 hhcurveto
          127 105 111 33 callgsubr
          -73 88 -121 -77 -54 -33 -41 -33 hvcurveto
          -2 -33 rmoveto
          -62 callgsubr
        </CharString>
        <CharString name="backslash">
          -116 -21 903 -20 hstem
          320 -113 rmoveto
          -16 8 7 -8 11 hhcurveto
          9 9 5 12 12 hvcurveto
          -466 866 rlineto
          16 -9 -6 4 -9 hhcurveto
          -16 -14 -17 0 hvcurveto
          endchar
        </CharString>
        <CharString name="bar">
          -303 -229 -21 hstem
          70 67 vstem
          123 749 8 callsubr
          -868 vlineto
          -3 7 5 -1 4 hhcurveto
          20 4 12 18 hvcurveto
          endchar
        </CharString>
        <CharString name="braceleft">
          -171 682 -20 hstem
          125 64 vstem
          101 270 rmoveto
          99 4 34 73 81 55 -8 96 58 vvcurveto
          114 6 93 199 20 5 13 14 12 -3 13 -7 -215 -74 -127 -134 vhcurveto
          -53 6 -88 -47 vvcurveto
          -88 -19 -66 -102 -13 -16 2 0 vhcurveto
          -8 -6 -17 -14 -14 6 -10 8 hvcurveto
          0 16 2 13 102 19 -66 -88 vhcurveto
          -47 -6 -134 -53 vvcurveto
          -134 74 -127 215 7 3 13 12 14 -5 13 -20 -199 -6 93 114 vhcurveto
          58 8 142 55 vvcurveto
          81 -34 73 -99 4 vhcurveto
          endchar
        </CharString>
        <CharString name="braceright">
          -171 682 -20 hstem
          -19 64 vstem
          235 265 rmoveto
          -99 -4 -34 -73 -81 -55 8 -142 -58 vvcurveto
          -114 -6 -93 -199 -20 -5 -13 -14 -12 3 -13 7 215 74 127 134 vhcurveto
          53 -6 134 47 vvcurveto
          88 19 66 102 13 16 -2 0 vhcurveto
          8 6 10 14 14 -6 17 -8 hvcurveto
          0 -16 -2 -13 -102 -19 66 88 vhcurveto
          47 6 88 53 vvcurveto
          134 -74 127 -215 -7 -3 -13 -12 -14 5 -13 20 199 6 -93 -114 vhcurveto
          -58 -8 -96 -55 vvcurveto
          -81 34 -73 99 -4 vhcurveto
          endchar
        </CharString>
        <CharString name="bracketleft">
          17 callgsubr
          82 74 vstem
          450 -397 rmoveto
          8 3 11 11 12 -3 11 -8 hvcurveto
          -294 1192 294 hlineto
          8 3 11 13 10 -3 12 -8 hvcurveto
          -368 -1283 hlineto
          endchar
        </CharString>
        <CharString name="bracketright">
          17 callgsubr
          316 74 vstem
          390 -397 rmoveto
          1283 -368 vlineto
          -8 -3 -12 -10 -13 3 -11 8 hvcurveto
          294 -1192 -294 hlineto
          -8 -3 -11 -12 -11 3 -11 8 hvcurveto
          endchar
        </CharString>
        <CharString name="breve">
          -107 531 59 hstem
          204 531 rmoveto
          74 60 50 75 4 hvcurveto
          13 -22 1 -4 -14 vhcurveto
          -48 -14 -51 -18 -47 hhcurveto
          -47 -51 18 48 -14 hvcurveto
          -4 14 -22 -1 -13 vvcurveto
          -75 4 60 -50 74 hhcurveto
          endchar
        </CharString>
        <CharString name="brokenbar">
          -303 -130 -21 904 -20 hstem
          79 41 vstem
          96 -151 rmoveto
          20 4 12 18 hvcurveto
          353 vlineto
          0 -41 4 -26 vvcurveto
          1 -357 rlineto
          -3 7 5 -1 4 hhcurveto
          27 900 8 callsubr
          -353 vlineto
          0 41 -7 23 vvcurveto
          endchar
        </CharString>
        <CharString name="bullet">
          -100 170 341 hstem
          31 344 vstem
          201 225 rmoveto
          69 56 54 68 67 -56 54 -65 -68 -57 -54 -67 -68 57 -54 64 hvcurveto
          endchar
        </CharString>
        <CharString name="c">
          -50 -13 72 342 49 hstem
          39 84 vstem
          -5 callsubr
          -100 75 -101 138 -64 callsubr
        </CharString>
        <CharString name="caron">
          -87 537 -21 168 -20 21 -46 callgsubr
          hintmask 11000000
          97 677 rmoveto
          6 -7 -6 callgsubr
          -87 callgsubr
          hintmask 10100000
          -77 callgsubr
        </CharString>
        <CharString name="ccedilla">
          -50 30 callsubr
          37 72 342 49 hstemhm
          39 84 25 9 callgsubr
          hintmask 11111010
          -5 callsubr
          -88 57 -89 108 -20 hvcurveto
          -23 -63 rlineto
          8 8 1 8 hhcurveto
          28 32 -9 -34 -24 -19 -12 -22 -16 -21 10 14 32 callsubr
          4 hvcurveto
          9 -4 -9 5 -9 hhcurveto
          hintmask 11111100
          -11 -10 -7 -13 -34 56 -17 27 37 40 19 42 47 -52 15 -38 -1 hvcurveto
          13 38 rlineto
          -1 7 7 0 7 hhcurveto
          -64 callsubr
        </CharString>
        <CharString name="cedilla">
          -207 30 callsubr
          50 -20 hstemhm
          66 9 callgsubr
          hintmask 11101000
          154 hmoveto
          -28 hlineto
          -27 -72 rlineto
          8 8 1 8 hhcurveto
          28 32 -9 -34 -24 -19 -12 -22 -16 -21 10 14 32 callsubr
          4 hvcurveto
          9 -4 -9 5 -9 hhcurveto
          hintmask 11110000
          -11 -10 -7 -13 -34 56 -17 27 37 40 19 42 47 -52 15 -38 -1 hvcurveto
          endchar
        </CharString>
        <CharString name="cent">
          29 113 72 hstem
          85 84 vstem
          369 720 rmoveto
          -27 13 -17 -6 -4 -27 -18 -129 rcurveline
          -117 -22 -101 -104 -131 vvcurveto
          -85 53 -85 101 -24 vhcurveto
          -20 -140 28 -13 12 21 2 11 rlinecurve
          1 6 7 44 9 64 rrcurveto
          20 hlineto
          103 75 83 19 9 -5 4 -7 hvcurveto
          -13 -35 -43 -87 hhcurveto
          -13 -13 1 3 -13 hvcurveto
          49 330 26 -10 26 -17 28 -27 rlinecurve
          28 12 10 18 17 vvcurveto
          33 -44 31 -65 vhcurveto
          12 84 9 60 0 vvcurveto
          -200 -353 rmoveto
          104 58 56 66 vhcurveto
          3 hlineto
          -45 -322 rlineto
          -46 26 -36 52 84 vvcurveto
          endchar
        </CharString>
        <CharString name="circumflex">
          -87 530 147 -67 67 0 -20 hstem
          66 279 vstem
          314 530 -107 callsubr
          endchar
        </CharString>
        <CharString name="colon">
          -13 114 222 14 callgsubr
          -28 callsubr
          -336 vmoveto
          -85 callsubr
          endchar
        </CharString>
        <CharString name="comma">
          -143 -21 266 -20 hstemhm
          72 21 callsubr
          71 -164 rmoveto
          -90 callgsubr
          hintmask 11010000
          -81 callgsubr
          endchar
        </CharString>
        <CharString name="copyright">
          233 -13 44 113 30 318 29 107 44 hstem
          35 44 91 81 410 44 vstem
          705 329 rmoveto
          190 -151 153 -187 -184 -148 -156 -188 -187 149 -154 184 186 151 153 189 vhcurveto
          -44 hmoveto
          -165 -130 -133 -163 -162 -127 133 164 165 126 135 162 164 130 -132 -167 vhcurveto
          -491 -9 rmoveto
          -113 104 -63 119 34 34 8 13 34 vhcurveto
          -17 vlineto
          -3 5 -1 4 4 8 1 3 27 1 37 4 19 vhcurveto
          4 -4 2 -4 -5 -8 -2 -4 -1 vhcurveto
          -4 -25 rlineto
          -22 -31 -31 -10 -37 hhcurveto
          -80 -65 55 104 101 62 58 74 37 31 -11 -27 30 hvcurveto
          3 -26 rlineto
          -3 1 6 -3 5 hhcurveto
          5 6 3 3 -1 hvcurveto
          -3 26 -2 36 27 vvcurveto
          4 -6 1 -5 -3 -5 -2 -3 vhcurveto
          -16 vlineto
          11 -23 -30 9 -34 hhcurveto
          -114 -115 -70 -131 hvcurveto
          endchar
        </CharString>
        <CharString name="currency">
          50 103 -21 35 63 330 63 35 -20 hstemhm
          29 92 -61 61 314 61 -61 92 hintmask 00000000
          hintmask 11110110
          60 345 rmoveto
          -50 15 -52 30 -41 vhcurveto
          -56 -45 rlineto
          hintmask 11111001
          -14 -12 -6 -12 -11 vvcurveto
          -17 14 -15 19 -8 vhcurveto
          18 26 55 62 0 vvcurveto
          -34 39 44 -19 60 hhcurveto
          60 44 19 34 39 hvcurveto
          0 55 -62 18 -26 vhcurveto
          19 8 14 15 17 vvcurveto
          11 -6 12 -14 12 vhcurveto
          -56 45 rlineto
          hintmask 11111010
          30 41 15 52 50 vvcurveto
          50 -15 52 -30 41 vhcurveto
          56 45 rlineto
          hintmask 11111001
          14 12 6 12 11 vvcurveto
          17 -14 15 -19 8 vhcurveto
          -18 -26 -55 -62 0 vvcurveto
          34 -39 -44 19 -60 hhcurveto
          -60 -44 -19 -34 -39 hvcurveto
          0 -55 62 -18 26 vhcurveto
          -19 -8 -14 -15 -17 vvcurveto
          -11 6 -12 14 -12 vhcurveto
          56 -45 rlineto
          hintmask 11110110
          -30 -41 -15 -52 -50 vvcurveto
          375 hmoveto
          -115 -81 -50 -76 -76 -81 50 115 117 81 48 76 76 81 -48 -117 vhcurveto
          endchar
        </CharString>
        <CharString name="d">
          66 -13 61 366 36 4 callsubr
          hstem
          39 100 260 85 vstem
          484 376 rmoveto
          148 1 174 37 -94 callsubr
          -178 vlineto
          17 -22 -33 27 -73 -12 callsubr
          56 34 41 33 hvcurveto
          2 hlineto
          -20 1 2 -55 22 hhcurveto
          13 29 32 14 87 hvcurveto
          -37 callgsubr
          6 8 vvcurveto
          7 -4 8 34 callsubr
          -13 -3 -12 hhcurveto
          -8 -8 2 4 -5 hvcurveto
          -12 10 -2 24 46 vvcurveto
          -85 -52 rmoveto
          -33 callgsubr
        </CharString>
        <CharString name="dagger">
          -7 363 27 4 46 242 -20 hstem
          32 57 164 26 vstem
          399 403 rmoveto
          -50 callgsubr
          -28 callgsubr
          -4 -125 -7 -119 -91 1 callsubr
          -16 82 -7 128 126 vvcurveto
          -11 callsubr
          endchar
        </CharString>
        <CharString name="daggerdbl">
          -7 -70 44 1 32 452 32 1 44 146 -20 hstemhm
          216 69 -47 25 124 57 hintmask 00000000
          hintmask 11111011
          399 142 rmoveto
          0 -56 -2 -68 -1 vhcurveto
          49 vlineto
          -11 callsubr
          -50 callgsubr
          hintmask 11111101
          -28 callgsubr
          -2 -76 -4 -73 -3 -67 rrcurveto
          -1 -59 -59 0 -35 hhcurveto
          4 callgsubr
          115 hlineto
          -1 -26 0 -25 -23 1 callsubr
          -12 62 -7 86 -3 93 rrcurveto
          170 hlineto
          -52 callsubr
        </CharString>
        <CharString name="degree">
          -107 422 33 184 33 hstem
          75 33 184 33 vstem
          325 547 rmoveto
          68 -57 57 -68 -69 -56 -55 -70 -69 56 -56 69 68 57 56 69 vhcurveto
          -33 hmoveto
          -51 -42 -41 -50 -51 -41 41 51 50 41 42 50 51 42 -42 -50 vhcurveto
          endchar
        </CharString>
        <CharString name="dieresis">
          -127 555 102 hstem
          66 19 callgsubr
          vstem
          117 555 rmoveto
          -105 callgsubr
        </CharString>
        <CharString name="divide">
          13 3 102 127 44 127 102 hstem
          210 102 cntrmask 11100000
          261 403 rmoveto
          29 22 24 29 27 -25 22 -26 -27 -24 -21 -28 -29 21 -24 30 hvcurveto
          -400 vmoveto
          29 22 24 29 27 -25 22 -26 -27 -24 -21 -28 -29 21 -24 30 hvcurveto
          184 278 rmoveto
          0 -322 -5 -91 vhcurveto
          4 callgsubr
          423 hlineto
          -52 callsubr
        </CharString>
        <CharString name="dollar">
          13 12 -21 hstemhm
          46 228 -194 98 65 45 -26 40 62 103 hintmask 00000000
          hintmask 10101100
          318 769 rmoveto
          -28 6 -16 -10 -1 -26 -3 -60 rcurveline
          -116 -14 -74 -70 -84 vvcurveto
          -115 91 -43 79 -50 vhcurveto
          -14 -268 -97 8 -47 92 -14 48 rlinecurve
          5 -1 -7 2 -7 hhcurveto
          hintmask 11000100
          -9 -8 -3 -7 hvcurveto
          4 -58 18 -84 16 -42 rrcurveto
          -4 2 4 -1 5 hhcurveto
          12 14 8 9 -4 hvcurveto
          -8 19 28 -13 43 -14 54 -2 rlinecurve
          -6 -111 29 -10 9 22 1 11 rlinecurve
          5 90 rlineto
          109 10 86 69 99 vvcurveto
          121 -92 50 -80 49 vhcurveto
          15 246 84 -6 25 -60 14 -45 rlinecurve
          -2 2 5 -1 4 hhcurveto
          9 10 2 4 2 hvcurveto
          -2 40 -9 61 -15 55 rrcurveto
          -54 callsubr
          -9 2 rlineto
          7 -25 -37 6 -30 hhcurveto
          4 62 2 25 0 vvcurveto
          46 -629 rmoveto
          -48 -26 -46 -64 -10 vhcurveto
          hintmask 10110100
          6 90 4 80 4 71 rrcurveto
          43 -33 33 -40 -64 vvcurveto
          -186 401 rmoveto
          41 17 50 73 11 vhcurveto
          -12 -220 rlineto
          -44 30 -34 34 54 vvcurveto
          endchar
        </CharString>
        <CharString name="dotaccent">
          -267 555 102 hstem
          66 102 vstem
          117 -27 callgsubr
          endchar
        </CharString>
        <CharString name="dotlessi">
          -209 -73 callgsubr
          478 -20 hstemhm
          106 -38 callsubr
          hintmask 10011000
          -100 callsubr
          hintmask 00111000
          -106 callsubr
          endchar
        </CharString>
        <CharString name="e">
          -47 callgsubr
          hstemhm
          39 54 243 -38 callsubr
          hintmask 11011000
          387 250 rmoveto
          -98 callsubr
          hintmask 10111000
          -92 callsubr
          endchar
        </CharString>
        <CharString name="eacute">
          -47 callgsubr
          295 -27 callsubr
          191 537 -92 callgsubr
          196 -287 rmoveto
          -98 callsubr
          hintmask 10111100
          -92 callsubr
          endchar
        </CharString>
        <CharString name="ecircumflex">
          -47 callgsubr
          242 -27 callsubr
          369 530 -107 callsubr
          125 -370 rmoveto
          -98 callsubr
          hintmask 10111100
          -92 callsubr
          endchar
        </CharString>
        <CharString name="edieresis">
          -47 callgsubr
          106 102 hstemhm
          39 54 33 19 callgsubr
          -59 -38 callsubr
          hintmask 11011110
          177 555 rmoveto
          -105 callsubr
          43 -305 rmoveto
          hintmask 11011101
          -98 callsubr
          hintmask 10111101
          -92 callsubr
          endchar
        </CharString>
        <CharString name="egrave">
          -47 callgsubr
          288 -27 callsubr
          308 537 -102 callgsubr
          79 -287 rmoveto
          -98 callsubr
          hintmask 10111100
          -92 callsubr
          endchar
        </CharString>
        <CharString name="eight">
          17 -13 47 605 46 hstemhm
          66 76 -58 71 209 80 -68 82 hintmask 00000000
          hintmask 11100100
          66 153 rmoveto
          -96 79 -70 110 99 104 69 125 92 -85 57 -53 36 vhcurveto
          hintmask 11011000
          58 36 66 68 73 vvcurveto
          83 -67 59 -97 -101 -95 -85 -95 -74 45 -50 59 -40 vhcurveto
          hintmask 11100100
          -53 -37 -69 -69 25 callgsubr
          -59 -75 -69 -62 50 93 57 34 53 43 34 vhcurveto
          70 -37 87 -58 -85 vvcurveto
          hintmask 11011000
          -221 402 rmoveto
          54 39 42 59 56 55 -48 -68 -50 -31 -48 -45 -36 vhcurveto
          -66 47 -67 39 68 vvcurveto
          endchar
        </CharString>
        <CharString name="eight.taboldstyle">
          -4 -13 20 663 20 hstem
          -39 64 -48 64 263 64 -36 64 vstem
          55 152 rmoveto
          -96 79 -69 110 99 104 68 125 92 -85 56 -53 36 vhcurveto
          58 36 66 66 73 vvcurveto
          83 -67 57 -97 -101 -95 -83 -95 -74 45 -48 59 -40 vhcurveto
          -53 -37 -69 -68 25 callgsubr
          -58 -75 -69 -62 49 93 57 34 52 43 34 vhcurveto
          70 -37 87 -57 -85 vvcurveto
          -221 399 rmoveto
          54 39 40 59 56 55 -46 -68 -50 -31 -46 -45 -36 vhcurveto
          -66 47 -67 37 68 vvcurveto
          endchar
        </CharString>
        <CharString name="ellipsis">
          493 -13 114 hstem
          110 114 219 114 219 114 cntrmask 01110000
          500 -13 rmoveto
          33 24 28 31 33 -30 22 -30 -31 -23 -28 -30 -31 26 -25 31 hvcurveto
          333 hmoveto
          33 24 28 31 33 -30 22 -30 -31 -23 -28 -30 -31 26 -25 31 hvcurveto
          -666 hmoveto
          -85 callsubr
          endchar
        </CharString>
        <CharString name="emdash">
          493 191 67 hstem
          0 1000 vstem
          951 250 rmoveto
          0 -860 -5 -91 vhcurveto
          4 callgsubr
          961 hlineto
          -52 callsubr
        </CharString>
        <CharString name="endash">
          -7 191 67 hstem
          0 500 vstem
          452 250 rmoveto
          0 -361 -5 -91 vhcurveto
          4 callgsubr
          462 hlineto
          -52 callsubr
        </CharString>
        <CharString name="equal">
          13 150 41 123 41 29 callgsubr
          hintmask 10100000
          440 360 rmoveto
          hintmask 11000000
          0 -315 -5 -91 vhcurveto
          3 callsubr
          416 hlineto
          hintmask 10100000
          -47 callsubr
          -164 vmoveto
          0 -315 -5 -91 vhcurveto
          3 callsubr
          416 hlineto
          -47 callsubr
          endchar
        </CharString>
        <CharString name="eth">
          53 -14 61 368 40 292 -20 hstem
          51 87 262 92 vstem
          442 695 rmoveto
          12 -4 -9 11 -13 hhcurveto
          -7 -9 -3 -11 -15 hvcurveto
          -85 -61 rlineto
          65 -70 -69 39 -27 hhcurveto
          -15 -9 -8 -6 8 hvcurveto
          46 -34 47 -42 41 -46 -97 -64 rcurveline
          -13 6 7 -10 11 hhcurveto
          9 12 7 11 15 hvcurveto
          59 43 rlineto
          73 -93 53 -112 -113 vvcurveto
          -139 -80 -81 -71 -76 -35 78 85 98 47 107 82 vhcurveto
          34 8 -11 15 hhcurveto
          8 6 3 7 28 -56 13 -35 -127 -69 -120 -119 -116 65 -114 142 115 119 92 189 138 -81 126 -86 88 hvcurveto
          endchar
        </CharString>
        <CharString name="exclam">
          -187 -13 114 583 -20 hstemhm
          103 111 -73 43 -43 73 28 callsubr
          184 178 rmoveto
          hintmask 11001000
          -2 138 32 151 100 vvcurveto
          71 -16 46 -41 -18 -24 -9 -19 -30 vhcurveto
          30 -69 26 -103 -204 vvcurveto
          -76 vlineto
          hintmask 11010000
          -36 24 -7 19 17 vhcurveto
          -24 -77 rmoveto
          hintmask 11100000
          -23 callsubr
        </CharString>
        <CharString name="exclamdown">
          -187 -229 -21 583 114 hstemhm
          110 72 -72 107 -85 50 hintmask 00000000
          hintmask 11001000
          132 256 rmoveto
          hintmask 11100000
          2 -138 -24 -151 -100 vvcurveto
          -71 12 -46 41 18 24 9 19 30 vhcurveto
          -30 69 -23 103 204 vvcurveto
          76 vlineto
          hintmask 11001000
          36 -31 7 -19 -17 vhcurveto
          28 77 rmoveto
          hintmask 11010000
          -85 callsubr
          endchar
        </CharString>
        <CharString name="f">
          -162 -73 callgsubr
          399 38 245 42 hstemhm
          33 160 -85 -38 callsubr
          hintmask 10011010
          108 45 rmoveto
          -13 -4 -4 -8 vhcurveto
          -58 hlineto
          hintmask 01011100
          -35 callsubr
          hintmask 10011100
          -75 callsubr
          hintmask 00111100
          -106 callsubr
          281 115 vlineto
          6 3 10 7 9 -4 12 -7 hvcurveto
          -113 29 hlineto
          78 1 138 102 45 27 -40 -33 21 vhcurveto
          38 12 12 20 19 vvcurveto
          32 -42 32 -55 -195 -12 -177 -94 -29 vhcurveto
          -62 callsubr
          hintmask 10011010
          70 hlineto
          endchar
        </CharString>
        <CharString name="fi">
          136 0 28 -9 -21 401 38 148 147 -40 40 hstemhm
          27 166 -85 85 258 -38 callsubr
          hintmask 10101101
          193 437 rmoveto
          29 vlineto
          78 10 148 138 61 29 -43 -61 22 vhcurveto
          hintmask 10110101
          -2 9 7 -1 8 hhcurveto
          36 23 20 31 55 -73 41 -82 -238 -8 -185 -94 -29 hvcurveto
          -62 callsubr
          hintmask 10110011
          -15 callsubr
          hintmask 01110101
          16 callgsubr
          hintmask 10110101
          -48 callgsubr
          234 29 rmoveto
          8 -6 4 -9 vhcurveto
          -39 -34 -41 -37 -44 -5 rrcurveto
          -4 -1 -1 -5 -4 vvcurveto
          -7 3 -8 4 15 12 -6 -8 8 vhcurveto
          11 -11 2 -25 -46 vvcurveto
          -207 -5 callgsubr
          hintmask 01110101
          -81 callsubr
          -75 callsubr
          hintmask 10110101
          42 13 -1 54 hhcurveto
          4 2 7 6 7 -3 10 -5 hvcurveto
          -70 325 hlineto
          46 4 33 32 vvcurveto
          endchar
        </CharString>
        <CharString name="five">
          49 -238 47 -47 143 247 69 259 -20 hstemhm
          404 68 hintmask 00000000
          hintmask 10111000
          363 367 -46 callsubr
          -286 -53 callsubr
          hintmask 01111000
          -54 callgsubr
          141 rlineto
          endchar
        </CharString>
        <CharString name="five.taboldstyle">
          22 -252 20 392 30 127 82 65 -20 hstem
          14 89 -30 32 242 100 vstem
          367 591 -46 callsubr
          -285 -53 callsubr
          -54 callgsubr
          140 rlineto
          endchar
        </CharString>
        <CharString name="fl">
          137 0 28 -9 -21 401 38 255 21 -21 40 5 -20 hstemhm
          27 166 -85 85 261 85 -43 callsubr
          hintmask 1011011010000000
          539 353 rmoveto
          149 1 186 -59 callsubr
          -9 -22 -31 -15 -18 hhcurveto
          hintmask 1010101010000000
          -18 -22 19 -61 hhcurveto
          -211 -7 -185 -94 -29 hvcurveto
          -62 callsubr
          hintmask 1011010110000000
          -15 callsubr
          hintmask 0111011010000000
          16 callgsubr
          hintmask 1011011010000000
          -48 callgsubr
          -113 29 hlineto
          78 7 148 126 91 37 -65 -51 vhcurveto
          -502 -5 callgsubr
          hintmask 0111011010000000
          -81 callsubr
          -75 callsubr
          hintmask 1011011010000000
          42 13 -1 54 hhcurveto
          4 2 7 6 7 -3 10 -5 hvcurveto
          -70 hlineto
          endchar
        </CharString>
        <CharString name="florin">
          -219 -127 27 584 27 244 32 hstem
          -44 577 vstem
          242 461 rmoveto
          113 hlineto
          11 5 16 11 hvcurveto
          7 -1 -2 5 -5 hhcurveto
          -108 hlineto
          160 56 41 84 62 hhcurveto
          39 29 -29 -28 23 hvcurveto
          35 4 19 21 27 vvcurveto
          49 -65 9 -34 -131 -70 -96 -183 -73 vhcurveto
          -24 -10 -49 0 -36 hhcurveto
          -9 -4 -13 -10 -6 3 -4 4 hvcurveto
          81 hlineto
          -293 -105 -56 -332 -105 hhcurveto
          -34 -22 20 26 -29 hvcurveto
          -19 -10 -7 -14 -15 vvcurveto
          -33 1 33 -27 42 hhcurveto
          195 107 477 201 75 hvcurveto
          endchar
        </CharString>
        <CharString name="four">
          49 -223 28 -10 -21 231 46 421 -20 hstemhm
          308 90 -90 201 hintmask 00000000
          hintmask 10111000
          308 -89 rmoveto
          -82 -33 callsubr
          hvcurveto
          hintmask 01111000
          -81 callsubr
          hintmask 10111000
          -68 callsubr
          110 98 vlineto
          hintmask 10110100
          13 callgsubr
          hintmask 10111000
          -98 137 -10 callsubr
          -421 -16 callsubr
          322 rmoveto
          3 hlineto
          0 -2 -36 -34 vvcurveto
          -206 -205 vlineto
          endchar
        </CharString>
        <CharString name="four.taboldstyle">
          25 -249 20 216 32 hstem
          250 90 vstem
          307 135 rmoveto
          -82 -33 callsubr
          -6 32 callgsubr
          -68 callsubr
          101 98 vlineto
          13 callgsubr
          -98 136 -10 callsubr
          -420 -16 callsubr
          321 rmoveto
          3 hlineto
          0 -2 -36 -34 vvcurveto
          -205 -205 vlineto
          endchar
        </CharString>
        <CharString name="fraction">
          -101 3 -21 498 -20 hstem
          348 463 -26 callsubr
          -247 -461 -57 callsubr
          endchar
        </CharString>
        <CharString name="g">
          3 -280 35 212 74 81 33 233 62 -33 33 -4 -20 hstemhm
          34 74 -58 58 -58 85 185 85 -85 187 -82 68 -43 callsubr
          hintmask 1111000101010000
          232 450 rmoveto
          -94 -88 -62 -106 -66 42 -57 61 -23 hvcurveto
          -2 vlineto
          -71 -16 -25 -53 -26 vvcurveto
          -49 56 -19 49 -6 vhcurveto
          -3 vlineto
          hintmask 1111001001010000
          -70 -24 -58 -65 -54 vvcurveto
          -74 71 -25 93 140 155 100 109 80 -80 32 -87 vhcurveto
          -42 -28 -5 -48 hhcurveto
          -42 -47 5 27 17 29 36 79 1 hvcurveto
          95 2 83 46 114 50 -21 22 12 vvcurveto
          12 18 8 12 26 19 -14 -16 20 vhcurveto
          hintmask 1110011000100000
          19 11 9 17 16 vvcurveto
          23 -19 21 -35 -27 -33 -18 -36 -31 vhcurveto
          hintmask 1111001001010000
          36 -33 -48 22 -49 hhcurveto
          71 -483 rmoveto
          60 62 -18 -50 -86 -125 -58 -79 -70 -43 27 56 54 48 50 56 20 hvcurveto
          1 36 19 4 36 hhcurveto
          -78 188 rmoveto
          hintmask 1110100011010000
          -70 -20 69 60 63 18 70 74 73 20 -73 -60 -65 -21 -64 -74 hvcurveto
          endchar
        </CharString>
        <CharString name="germandbls">
          38 -2 35 -22 -21 31 -21 682 43 hstemhm
          33 160 -85 85 69 26 -10 44 28 75 11 76 -43 callsubr
          hintmask 1001011011000000
          108 45 rmoveto
          -13 -4 -4 -8 vhcurveto
          -58 hlineto
          hintmask 1001101011000000
          -35 callsubr
          38 17 3 33 hhcurveto
          hintmask 0011100111000000
          42 -32 -1 54 hhcurveto
          4 1 7 6 hvcurveto
          22 -4 4 79 vvcurveto
          348 vlineto
          78 1 138 102 41 13 -32 -37 vhcurveto
          -55 -72 -57 -94 -169 158 6 -133 vvcurveto
          hintmask 1001101011000000
          -47 -36 -31 -43 -46 -23 19 37 vhcurveto
          10 -26 -5 -11 vvcurveto
          hintmask 0101010111000000
          -62 39 -31 59 77 75 61 84 vhcurveto
          152 -190 7 141 77 103 41 80 vvcurveto
          56 -41 36 -65 -176 -8 -178 -94 -29 vhcurveto
          -62 callsubr
          70 hlineto
          endchar
        </CharString>
        <CharString name="grave">
          15 callsubr
          278 536 -102 callgsubr
          endchar
        </CharString>
        <CharString name="greater">
          -53 65 -21 382 -20 hstem
          415 235 rmoveto
          24 -243 167 -85 -45 -7 -26 0 vhcurveto
          186 -74 97 -83 9 -8 -6 -6 -97 -84 -189 -75 rrcurveto
          0 7 -26 45 85 243 167 24 vhcurveto
          endchar
        </CharString>
        <CharString name="guillemotleft">
          -49 80 -21 324 -20 hstem
          47 221 rmoveto
          -80 callsubr
          160 hmoveto
          -80 callsubr
          endchar
        </CharString>
        <CharString name="guillemotright">
          -49 80 -21 324 -20 hstem
          411 221 rmoveto
          -79 callgsubr
          -160 hmoveto
          -79 callgsubr
          endchar
        </CharString>
        <CharString name="guilsinglleft">
          -209 70 298 hstem
          47 177 vstem
          47 221 rmoveto
          -80 callsubr
          endchar
        </CharString>
        <CharString name="guilsinglright">
          -209 74 298 hstem
          74 177 vstem
          251 221 rmoveto
          -79 callgsubr
          endchar
        </CharString>
        <CharString name="h">
          99 -73 callgsubr
          395 55 4 callsubr
          hstemhm
          110 85 228 -38 callsubr
          hintmask 10011111
          195 390 rmoveto
          148 1 160 37 -94 callsubr
          -539 vlineto
          -86 callgsubr
          237 vlineto
          22 20 37 18 40 hhcurveto
          98 33 -89 callgsubr
          140 -70 52 -101 -44 -57 -24 -36 -40 vhcurveto
          endchar
        </CharString>
        <CharString name="hungarumlaut">
          33 539 -21 158 -20 hstem
          93 521 rmoveto
          -55 callsubr
          170 hmoveto
          -55 callsubr
          endchar
        </CharString>
        <CharString name="hyphen">
          -257 181 46 -13 40 hstemhm
          hintmask 00000000
          hintmask 10000000
          6 227 rmoveto
          0 3 -46 31 vhcurveto
          hintmask 01000000
          54 66 29 4 78 hvcurveto
          1 6 1 5 5 vvcurveto
          14 -7 10 -22 vhcurveto
          hintmask 10000000
          -46 -65 -29 2 -94 hvcurveto
          endchar
        </CharString>
        <CharString name="i">
          -209 -73 callgsubr
          585 107 hstemhm
          83 108 -85 -38 callsubr
          hintmask 10010100
          -100 callsubr
          hintmask 00110100
          -106 callsubr
          -52 467 6 callsubr
          hintmask 10011000
          3 callgsubr
        </CharString>
        <CharString name="iacute">
          -209 -73 callgsubr
          744 -20 hstemhm
          106 -38 callsubr
          hintmask 10011000
          -100 callsubr
          hintmask 00111000
          -106 callsubr
          -116 419 -92 callgsubr
          endchar
        </CharString>
        <CharString name="icircumflex">
          -209 -73 callgsubr
          691 -20 hstemhm
          106 -38 callsubr
          hintmask 10011000
          -100 callsubr
          hintmask 00111000
          -106 callsubr
          67 412 -107 callsubr
          endchar
        </CharString>
        <CharString name="idieresis">
          -209 -73 callgsubr
          555 102 hstemhm
          15 102 -11 85 -9 102 hintmask 00000000
          hintmask 10010100
          191 297 rmoveto
          119 4 13 -59 callsubr
          -16 -45 -71 -63 -84 callgsubr
          hvcurveto
          hintmask 01011010
          -81 callsubr
          hintmask 10011010
          -75 callsubr
          hintmask 00110100
          -106 callsubr
          -125 437 rmoveto
          hintmask 10011010
          -105 callgsubr
        </CharString>
        <CharString name="igrave">
          -209 -73 callgsubr
          737 -20 hstemhm
          29 162 -85 -38 callsubr
          hintmask 10010100
          -100 callsubr
          hintmask 00110100
          -106 callsubr
          28 419 rmoveto
          -2 3 4 -1 3 hhcurveto
          7 6 4 5 2 -1 2 -3 3 hvcurveto
          135 -121 9 52 -62 hhcurveto
          hintmask 10011000
          -20 -15 -13 -19 -37 40 -28 150 -103 hvcurveto
          endchar
        </CharString>
        <CharString name="j">
          -208 -281 45 821 107 hstemhm
          108 107 -85 85 28 callsubr
          215 297 rmoveto
          119 4 13 -59 callsubr
          -16 -45 -71 -63 -95 callsubr
          -295 vlineto
          -78 -2 -143 -92 -42 -25 33 25 -16 vhcurveto
          -29 -10 -15 -19 -19 vvcurveto
          -27 29 -28 56 183 38 216 107 vhcurveto
          -51 543 6 callsubr
          hintmask 11100000
          3 callgsubr
        </CharString>
        <CharString name="k">
          19 -73 callgsubr
          412 26 243 30 36 12 callgsubr
          -38 callsubr
          hintmask 10011110
          194 355 rmoveto
          148 1 195 37 -94 callsubr
          -539 vlineto
          -32 callgsubr
          hintmask 01011110
          -81 callsubr
          hintmask 10011110
          -75 callsubr
          hintmask 00111110
          -106 callsubr
          46 vlineto
          40 38 rlineto
          -184 148 23 -18 16 hhcurveto
          hintmask 10011110
          0 13 1 35 vhcurveto
          hintmask 00111110
          17 18 0 -1 14 hvcurveto
          7 4 5 10 6 -3 9 -7 -17 -5 1 10 -14 hvcurveto
          -23 16 -67 63 -103 134 156 146 rcurveline
          8 9 9 5 11 hhcurveto
          16 hlineto
          4 1 4 6 7 -1 8 -6 hvcurveto
          -30 -13 -2 -31 -34 -33 2 -34 hhcurveto
          -3 -2 -6 -5 -6 3 -9 5 hvcurveto
          48 hlineto
          4 4 -2 -7 -10 -7 -22 -36 -34 hvcurveto
          -136 -132 rlineto
          endchar
        </CharString>
        <CharString name="l">
          -30 callgsubr
          194 355 rmoveto
          148 1 195 37 -94 callsubr
          -539 vlineto
          -32 callgsubr
          hintmask 01011100
          -81 callsubr
          hintmask 10011100
          -75 callsubr
          hintmask 00111100
          -106 callsubr
          endchar
        </CharString>
        <CharString name="less">
          -34 65 -21 382 -20 hstem
          34 235 rmoveto
          -24 243 -167 85 45 7 26 0 vhcurveto
          -189 75 -97 84 -6 6 9 8 97 83 186 74 rrcurveto
          0 -7 26 -45 -85 -243 -167 -24 vhcurveto
          endchar
        </CharString>
        <CharString name="logicalnot">
          13 313 43 4 -20 hstemhm
          440 47 hintmask 00000000
          hintmask 10100000
          11 356 rmoveto
          0 -1 -43 38 297 100 4 0 vhcurveto
          0 -5 -80 -127 0 47 -7 38 vvcurveto
          0 0 112 3 49 vhcurveto
          hintmask 01100000
          42 3 0 16 -18 hhcurveto
          hintmask 10100000
          -50 -97 -4 -111 hhcurveto
          -106 -100 0 0 hvcurveto
          endchar
        </CharString>
        <CharString name="lslash">
          -30 callgsubr
          98 359 rmoveto
          0 -41 -19 -18 -12 vhcurveto
          -15 -8 9 -38 13 5 rrcurveto
          12 9 51 32 0 vvcurveto
          -283 vlineto
          -32 callgsubr
          hintmask 01011100
          -81 callsubr
          hintmask 10011100
          -75 callsubr
          hintmask 00111100
          -106 callsubr
          259 vlineto
          11 7 29 20 16 13 20 16 -12 29 -9 -6 -55 -41 rcurveline
          136 1 151 33 -94 callsubr
          -219 vlineto
          endchar
        </CharString>
        <CharString name="m">
          395 -73 callgsubr
          395 55 28 12 callgsubr
          84 221 85 220 -38 callsubr
          hintmask 10011111
          191 388 rmoveto
          33 2 8 37 vvcurveto
          8 -6 4 -8 vhcurveto
          -12 -47 -71 -61 hhcurveto
          -6 0 -10 -4 -7 4 -9 4 hvcurveto
          20 hlineto
          14 14 -11 -86 hvcurveto
          -235 vlineto
          -86 callgsubr
          237 vlineto
          22 20 37 18 40 hhcurveto
          95 28 -89 callgsubr
          33 -4 28 -7 24 vhcurveto
          31 26 44 21 38 hhcurveto
          95 28 -89 callgsubr
          140 -65 52 -98 -65 -59 -42 -36 -38 vhcurveto
          -2 hlineto
          55 -27 -50 23 -64 hhcurveto
          30 callgsubr
          hvcurveto
          endchar
        </CharString>
        <CharString name="macron">
          -107 581 41 -1 callgsubr
          280 627 rmoveto
          hintmask 10000000
          0 -124 -5 -91 vhcurveto
          3 callsubr
          225 hlineto
          hintmask 01000000
          -47 callsubr
          endchar
        </CharString>
        <CharString name="minus">
          -254 200 50 -1 callgsubr
          206 255 rmoveto
          hintmask 10000000
          0 -115 -39 callgsubr
          -50 38 vhcurveto
          216 hlineto
          hintmask 01000000
          34 -12 21 -35 vhcurveto
          endchar
        </CharString>
        <CharString name="mu">
          61 -13 55 365 29 3 -20 hstemhm
          96 85 213 -38 callsubr
          hintmask 10111000
          224 -220 rmoveto
          -29 48 -17 77 -2 97 rrcurveto
          -10 22 25 -5 29 hhcurveto
          44 61 22 51 38 hvcurveto
          2 hlineto
          -42 6 -31 18 13 29 32 14 87 vhcurveto
          -37 callgsubr
          6 8 vvcurveto
          7 -4 8 34 callsubr
          -13 -3 -12 hhcurveto
          -8 -8 2 4 -5 hvcurveto
          -12 10 -2 24 46 vvcurveto
          186 -22 callgsubr
          -56 callgsubr
          hintmask 11011000
          -100 callgsubr
          -216 vlineto
          -37 -20 -37 -24 -40 hhcurveto
          -90 -26 46 135 hvcurveto
          109 -22 callgsubr
          hintmask 10111000
          -56 callgsubr
          hintmask 11011000
          -100 callgsubr
          -18 vlineto
          -209 -8 -256 45 -64 vhcurveto
          21 -30 47 8 23 30 rrcurveto
          endchar
        </CharString>
        <CharString name="multiply">
          13 55 409 -26 25 hstemhm
          45 430 hintmask 10100000
          412 71 rmoveto
          13 -12 8 -6 11 3 9 2 6 9 9 14 -177 175 rcurveline
          hintmask 01100000
          184 182 rlineto
          0 -8 21 -16 4 vhcurveto
          -8 2 -7 -1 -14 -13 -162 -164 rcurveline
          -162 164 -14 13 -7 1 -8 -2 rlinecurve
          -16 -4 -8 -21 0 vvcurveto
          183 -182 -176 -175 9 -14 6 -9 9 -2 rlinecurve
          11 -3 8 6 13 12 152 154 rcurveline
          endchar
        </CharString>
        <CharString name="n">
          93 -73 callgsubr
          395 55 28 12 callgsubr
          84 224 -38 callsubr
          hintmask 10011110
          -87 callsubr
          hvcurveto
          hintmask 01011110
          -81 callsubr
          hintmask 10011110
          -75 callsubr
          hintmask 00111110
          -50 callsubr
          31 -46 -135 hvcurveto
          -169 vlineto
          hintmask 10011110
          -32 callgsubr
          hintmask 01011110
          -81 callsubr
          hintmask 10011110
          -75 callsubr
          hintmask 00111110
          -36 callgsubr
          140 -68 52 -98 30 callgsubr
          vhcurveto
          endchar
        </CharString>
        <CharString name="nine">
          41 -225 -21 343 44 277 37 hstem
          54 100 235 101 vstem
          328 139 rmoveto
          9 -4 7 -9 vhcurveto
          -8 -19 -14 -29 hhcurveto
          -76 -29 67 72 86 42 52 57 69 67 -68 -61 callsubr
          82 -106 -114 -106 -67 -4 callsubr
        </CharString>
        <CharString name="nine.taboldstyle">
          13 -252 23 229 30 400 23 hstem
          -18 100 266 100 vstem
          310 364 rmoveto
          9 -4 7 -9 vhcurveto
          -8 -19 -14 -29 hhcurveto
          -76 -29 67 72 86 42 51 57 69 67 -67 -61 callsubr
          81 -106 -114 -106 -66 -4 callsubr
        </CharString>
        <CharString name="ntilde">
          93 27 callsubr
          420 26 vstem
          -87 callsubr
          -6 3 -9 4 hvcurveto
          38 21 3 57 -50 callsubr
          31 -46 -135 hvcurveto
          -169 -89 callsubr
          -6 3 -9 4 hvcurveto
          38 21 3 57 -36 callgsubr
          140 -68 52 -98 30 callgsubr
          vhcurveto
          -33 146 -31 callsubr
          -91 callgsubr
          -88 callsubr
        </CharString>
        <CharString name="numbersign">
          47 19 -21 233 54 119 52 -40 40 232 -20 hstem
          527 231 rmoveto
          0 -9 55 -36 1 vhcurveto
          -117 -3 19 122 134 -4 rlineto
          0 -8 55 -37 -1 vhcurveto
          -81 1 38 231 26 callsubr
          -194 -126 1 37 229 26 callsubr
          -192 -133 2 rlineto
          -30 6 8 -14 24 hhcurveto
          89 -3 -20 -137 -125 -3 4 -30 9 -15 23 1 rlinecurve
          82 -11 callgsubr
          130 -11 callgsubr
          -148 182 rmoveto
          126 -5 -18 -125 -130 -4 rlineto
          endchar
        </CharString>
        <CharString name="o">
          -31 callgsubr
          -95 callgsubr
          endchar
        </CharString>
        <CharString name="oacute">
          -31 callgsubr
          294 -20 -95 callgsubr
          -60 123 -92 callgsubr
          endchar
        </CharString>
        <CharString name="ocircumflex">
          -31 callgsubr
          241 -20 -95 callgsubr
          123 116 -107 callsubr
          endchar
        </CharString>
        <CharString name="odieresis">
          -31 callgsubr
          105 102 hstem
          34 100 6 19 callgsubr
          6 100 vstem
          -101 callsubr
          -79 141 rmoveto
          -105 callgsubr
        </CharString>
        <CharString name="oe">
          381 -13 23 -23 32 249 27 122 23 hstem
          34 100 281 100 52 100 223 93 -85 callgsubr
          87 84 45 77 38 hvcurveto
          3 hlineto
          -71 28 72 -51 83 hhcurveto
          136 45 108 17 8 -4 4 -7 hvcurveto
          -18 -16 -52 -110 hhcurveto
          -77 -104 45 125 20 callsubr
          8 98 -5 69 5 rrcurveto
          27 33 callsubr
          21 vvcurveto
          103 -69 66 -85 -75 -85 -46 -84 -39 vhcurveto
          -3 hlineto
          72 -31 -88 59 -94 hhcurveto
          -4 -36 rmoveto
          108 37 -104 -96 -89 -37 -102 -99 -107 -38 102 95 87 37 107 99 hvcurveto
          392 -19 rmoveto
          54 42 -39 -45 -12 -9 -4 -24 -3 hvcurveto
          -41 -6 -98 -6 -69 -7 rrcurveto
          81 15 69 41 61 hhcurveto
          endchar
        </CharString>
        <CharString name="ogonek">
          -207 -158 43 115 -20 hstemhm
          71 53 -53 167 hintmask 00000000
          hintmask 11100000
          228 -70 rmoveto
          0 -36 -45 -37 -22 -9 13 18 36 70 35 23 11 vhcurveto
          2 -22 vlineto
          -32 -8 -92 -25 -66 vvcurveto
          -37 29 -22 43 vhcurveto
          hintmask 11010000
          46 49 37 30 8 -3 7 -7 6 hvcurveto
          endchar
        </CharString>
        <CharString name="ograve">
          -31 callgsubr
          287 -20 -95 callgsubr
          109 123 -102 callgsubr
          endchar
        </CharString>
        <CharString name="one">
          -103 -73 callgsubr
          415 27 1 -20 22 -20 hstemhm
          159 -38 callsubr
          hintmask 10010010
          244 398 rmoveto
          13 4 4 8 vhcurveto
          70 hlineto
          3 2 9 6 hvcurveto
          hintmask 10000110
          6 -3 9 -4 vhcurveto
          hintmask 10010010
          -38 -33 -3 -57 hhcurveto
          hintmask 10001010
          -42 -25 1 -54 hhcurveto
          -4 -2 -7 -6 -7 3 -10 5 hvcurveto
          61 hlineto
          10 11 -11 -77 hvcurveto
          -280 vlineto
          -13 -4 -4 -8 vhcurveto
          -70 10 callsubr
          hintmask 01010010
          -81 callsubr
          hintmask 10010010
          38 33 3 57 hhcurveto
          hintmask 00110010
          42 25 -1 54 hhcurveto
          4 2 7 6 7 -3 10 -5 hvcurveto
          -61 hlineto
          -10 -11 11 77 hvcurveto
          endchar
        </CharString>
        <CharString name="one.taboldstyle">
          -105 -2 20 400 20 hstem
          158 90 vstem
          265 404 rmoveto
          175 12 79 21 vvcurveto
          6 -7 3 -11 -3 -2 -1 -1 -1 vhcurveto
          -50 -60 -114 -67 -73 -26 rrcurveto
          -4 -2 -1 -3 -5 vvcurveto
          -11 9 -4 7 vhcurveto
          14 78 35 32 hhcurveto
          21 3 -25 -20 hvcurveto
          -445 -33 callsubr
          -6 32 callgsubr
          -68 callsubr
          endchar
        </CharString>
        <CharString name="onehalf">
          273 -12 -21 33 42 136 144 -29 29 28 8 callgsubr
          242 65 105 69 -43 callsubr
          hintmask 1110111111000000
          -90 callsubr
          23 640 -8 callsubr
          -12 callgsubr
          -27 -31 -2 -41 29 callsubr
          -26 callgsubr
          -58 callgsubr
          -6 1 -6 4 hvcurveto
          27 24 2 41 -61 callgsubr
          234 -415 -73 callsubr
          -49 callsubr
          hintmask 1101111111000000
          -14 callgsubr
        </CharString>
        <CharString name="onequarter">
          0 callsubr
          260 8 callgsubr
          -68 132 288 62 -43 callsubr
          hintmask 1001111010000000
          -90 callsubr
          23 640 -8 callsubr
          hintmask 1001110110000000
          -12 callgsubr
          -27 -31 -2 -41 29 callsubr
          hintmask 1001111010000000
          -26 callgsubr
          hintmask 0111111010000000
          -58 callgsubr
          -6 1 -6 4 hvcurveto
          27 24 2 41 -61 callgsubr
          352 -460 -18 callgsubr
          hintmask 1001111010000000
          -30 callsubr
          hintmask 0111111010000000
          -77 callsubr
        </CharString>
        <CharString name="onesuperior">
          -202 350 26 -7 -21 22 -21 293 26 1 -20 21 -20 hstemhm
          51 134 -68 68 -68 132 -43 callsubr
          hintmask 1001001000000000
          185 631 -8 callsubr
          hintmask 1000010010000000
          -12 callgsubr
          hintmask 1001001000000000
          -27 -31 -2 -41 hhcurveto
          hintmask 1000101000000000
          29 callsubr
          -26 callgsubr
          hintmask 1001000100000000
          -58 callgsubr
          hvcurveto
          hintmask 0101001000000000
          -6 1 -6 4 vhcurveto
          hintmask 1001001000000000
          27 24 2 41 hhcurveto
          hintmask 0011001000000000
          -61 callgsubr
          endchar
        </CharString>
        <CharString name="ordfeminine">
          -151 345 42 -26 -21 89 37 192 24 hstemhm
          64 49 84 46 -46 100 hintmask 00000000
          hintmask 10111100
          247 612 rmoveto
          51 -37 19 -50 -42 -54 -33 -39 -19 12 -8 15 8 8 3 7 6 vhcurveto
          40 12 25 29 43 0 -39 -44 vhcurveto
          -81 -24 -51 -37 -43 vvcurveto
          -27 20 -15 31 39 35 26 35 13 vhcurveto
          5 hlineto
          -47 -1 11 -13 24 hhcurveto
          31 18 28 18 4 -1 3 -5 hvcurveto
          -5 -4 -17 -13 hhcurveto
          -13 -7 8 29 hvcurveto
          27 4 50 32 vvcurveto
          -107 -145 rmoveto
          -15 -7 9 12 25 29 32 50 10 hvcurveto
          -55 -30 -33 -27 vhcurveto
          153 -70 -51 callgsubr
          hintmask 01111010
          -18 callsubr
        </CharString>
        <CharString name="ordmasculine">
          -147 345 42 -26 -21 89 23 199 31 hstemhm
          52 49 154 49 hintmask 00000000
          hintmask 10111100
          178 682 rmoveto
          -70 -56 -57 -70 -69 56 -57 70 69 57 57 69 70 -57 57 -69 hvcurveto
          -3 -31 rmoveto
          46 34 -44 -57 -57 -29 -41 -46 -44 -35 43 56 57 29 43 45 20 callsubr
          -254 -51 callgsubr
          hintmask 01111100
          -18 callsubr
        </CharString>
        <CharString name="oslash">
          42 -57 -21 65 36 391 36 83 -20 hstem
          34 100 281 100 vstem
          274 450 rmoveto
          -122 -118 -98 -128 -87 47 -75 70 -42 hvcurveto
          -44 -81 -57 callsubr
          29 55 rlineto
          -9 26 27 -5 29 hhcurveto
          131 110 98 135 78 -43 67 -62 42 hvcurveto
          59 109 rlineto
          0 -14 17 -16 -9 -6 -4 -16 -9 vhcurveto
          -45 -84 rlineto
          13 -30 -33 8 -33 hhcurveto
          -4 -36 rmoveto
          32 26 -10 -15 20 hvcurveto
          -171 -319 rlineto
          -31 38 -12 57 55 vvcurveto
          87 37 107 99 vhcurveto
          145 -200 rmoveto
          -89 -37 -102 -99 -26 -22 6 10 -18 vhcurveto
          168 313 rlineto
          24 -38 10 -51 -49 vvcurveto
          endchar
        </CharString>
        <CharString name="otilde">
          -31 callgsubr
          140 26 callgsubr
          34 100 281 100 hintmask 00000000
          hintmask 11010111
          -101 callsubr
          -136 120 -31 callsubr
          hhcurveto
          hintmask 11100111
          -91 callgsubr
          hhcurveto
          hintmask 11001111
          -88 callsubr
        </CharString>
        <CharString name="p">
          75 -1 callsubr
          36 366 61 28 -20 hstemhm
          98 82 263 100 hintmask 00000000
          hintmask 10111110
          177 370 rmoveto
          33 3 26 37 11 callsubr
          -8 vhcurveto
          -12 -45 -71 -61 -95 callsubr
          -505 vlineto
          -32 callgsubr
          hintmask 01111110
          -81 callsubr
          hintmask 10111110
          -70 callsubr
          -82 -55 -38 -42 -33 hvcurveto
          4 -27 rmoveto
          -62 callgsubr
        </CharString>
        <CharString name="paragraph">
          31 -92 65 667 33 hstem
          38 244 47 103 vstem
          329 304 -65 callgsubr
          239 vlineto
          77 12 11 9 vhcurveto
          58 hlineto
          5 3 7 12 6 -1 8 -7 hvcurveto
          -55 -42 -2 -29 hhcurveto
          -115 hlineto
          -187 -45 -86 -90 -92 53 -96 124 20 25 4 8 22 hvcurveto
          5 95 4 220 0 vvcurveto
          2 38 1 0 vhcurveto
          endchar
        </CharString>
        <CharString name="parenleft">
          18 callgsubr
          66 75 vstem
          506 -364 rmoveto
          -183 -182 293 337 312 175 275 190 8 5 8 15 13 -4 7 -8 -208 -233 -244 -386 -399 230 -274 210 8 4 10 12 14 -4 7 -8 hvcurveto
          endchar
        </CharString>
        <CharString name="parenright">
          18 callgsubr
          344 75 vstem
          -21 -364 rmoveto
          -8 -4 -7 -14 -12 4 -10 8 210 230 274 399 386 -233 244 -208 -8 -4 -7 -13 -15 5 -8 8 190 175 -275 -312 -337 -182 -293 -183 hvcurveto
          endchar
        </CharString>
        <CharString name="percent">
          302 -12 -21 28 66 195 66 23 66 195 66 29 -20 hstem
          71 35 237 35 57 35 237 35 vstem
          -90 callsubr
          548 168 -93 callgsubr
          -329 347 -93 callgsubr
          endchar
        </CharString>
        <CharString name="period">
          -13 14 callgsubr
          -13 -21 callgsubr
          endchar
        </CharString>
        <CharString name="periodcentered">
          -187 188 131 hstem
          96 128 vstem
          96 254 rmoveto
          -36 29 -30 35 37 27 32 34 37 -30 28 -35 -35 -28 -30 -35 vhcurveto
          endchar
        </CharString>
        <CharString name="perthousand">
          680 -48 27 334 27 -26 29 264 27 42 27 hstem
          93 75 225 32 55 75 227 32 60 75 226 32 vstem
          -90 callsubr
          548 168 -93 callgsubr
          -329 347 -93 callgsubr
          767 -353 -93 callgsubr
          endchar
        </CharString>
        <CharString name="plus">
          13 233 24 callsubr
          458 rmoveto
          0 1 -83 1 -97 vhcurveto
          -1 -80 -82 -1 -39 hhcurveto
          0 -1 -43 38 vhcurveto
          165 hlineto
          1 -93 1 -95 -40 0 47 -14 38 vvcurveto
          204 204 24 callgsubr
          -72 -2 -85 -1 vhcurveto
          227 vlineto
          -34 3 -18 -15 -35 vvcurveto
          endchar
        </CharString>
        <CharString name="plusminus">
          13 1 44 243 24 callsubr
          454 rmoveto
          0 1 -55 1 -66 vhcurveto
          -1 -62 -66 -1 -38 hhcurveto
          0 -1 -43 38 vhcurveto
          130 hlineto
          1 -58 1 -60 -37 0 47 -14 38 vvcurveto
          131 161 24 callgsubr
          -51 -2 -63 -1 vhcurveto
          168 vlineto
          -34 3 -18 -15 -35 vvcurveto
          217 -404 rmoveto
          0 -330 -5 -91 vhcurveto
          4 callgsubr
          431 hlineto
          -52 callsubr
        </CharString>
        <CharString name="q">
          61 -1 callsubr
          61 366 36 34 -20 hstemhm
          39 100 260 -38 callsubr
          hintmask 10111110
          399 -225 rmoveto
          -32 callgsubr
          hintmask 01111110
          -81 callsubr
          hintmask 10111110
          38 21 3 57 -106 callsubr
          298 vlineto
          294 15 8 24 vvcurveto
          6 -3 6 -13 vhcurveto
          -15 -16 -91 -25 hhcurveto
          -2 hlineto
          -27 -21 57 -106 -12 callsubr
          54 33 41 33 hvcurveto
          2 hlineto
          33 vmoveto
          -33 callgsubr
        </CharString>
        <CharString name="question">
          -101 -13 114 182 91 235 80 hstemhm
          83 114 -82 39 160 42 hintmask 00000000
          hintmask 11101100
          156 285 rmoveto
          -1 11 11 -1 11 hhcurveto
          93 74 54 98 135 -113 119 -132 -42 -24 -32 -31 -23 13 -23 28 -9 hvcurveto
          20 25 34 18 26 hhcurveto
          75 68 -69 -71 -94 -83 -1 -75 -25 -23 -2 -18 hvcurveto
          -24 7 -88 -46 vvcurveto
          -13 7 -13 13 6 7 1 7 8 vhcurveto
          -2 13 0 16 16 vvcurveto
          32 2 30 0 vhcurveto
          -16 -298 rmoveto
          hintmask 11110100
          -85 callsubr
          endchar
        </CharString>
        <CharString name="questiondown">
          -101 -246 80 235 91 182 114 hstemhm
          50 42 117 114 -71 39 hintmask 00000000
          hintmask 11110100
          250 158 rmoveto
          1 -11 -11 1 -11 hhcurveto
          -93 -74 -54 -98 -135 113 -119 132 42 24 32 31 23 -13 23 -28 9 hvcurveto
          -20 -25 -34 -18 -26 hhcurveto
          -75 -68 69 71 94 83 1 75 25 23 2 18 hvcurveto
          24 -7 88 46 vvcurveto
          13 -7 13 -13 -6 -7 -1 -7 -8 vhcurveto
          2 -13 0 -16 -16 vvcurveto
          -32 -2 -30 0 vhcurveto
          16 298 rmoveto
          hintmask 11111000
          -23 callsubr
        </CharString>
        <CharString name="quotedbl">
          -127 459 -21 244 -20 hstemhm
          56 55 -24 24 -24 55 95 55 -24 24 -24 55 hintmask 00000000
          hintmask 11100100
          87 442 rmoveto
          -3 callsubr
          hintmask 11001100
          -22 callsubr
          hintmask 11010010
          -49 33 -74 -2 -68 vhcurveto
          181 hmoveto
          -3 callsubr
          hintmask 11100001
          -22 callsubr
          hintmask 11100010
          -49 33 -74 -2 -68 vhcurveto
          endchar
        </CharString>
        <CharString name="quotedblbase">
          -107 -11 14 callsubr
          46 -164 rmoveto
          -90 callgsubr
          -81 callgsubr
          181 -19 rmoveto
          -90 callgsubr
          -81 callgsubr
          endchar
        </CharString>
        <CharString name="quotedblleft">
          -107 17 callsubr
          52 41 130 41 vstem
          180 707 -78 callsubr
          164 19 -78 callsubr
          endchar
        </CharString>
        <CharString name="quotedblright">
          -107 576 14 callsubr
          226 -35 callgsubr
          -81 callgsubr
          -164 -19 rmoveto
          -90 callgsubr
          -81 callgsubr
          endchar
        </CharString>
        <CharString name="quoteleft">
          -207 17 callsubr
          88 41 vstem
          216 707 -78 callsubr
          endchar
        </CharString>
        <CharString name="quoteright">
          -207 576 106 0 -20 hstem
          172 41 vstem
          87 -35 callgsubr
          -81 callgsubr
          endchar
        </CharString>
        <CharString name="quotesinglbase">
          -207 10 -21 hstemhm
          172 41 hintmask 00000000
          111 -146 rmoveto
          hintmask 11000000
          58 39 44 39 75 vvcurveto
          38 -23 50 -45 -29 -28 -21 -31 -28 21 -26 30 14 9 5 8 10 vhcurveto
          3 -65 -30 -26 -47 -40 rrcurveto
          endchar
        </CharString>
        <CharString name="quotesingle">
          -207 437 -21 266 -20 hstemhm
          88 21 callsubr
          87 -35 callgsubr
          hintmask 11010000
          -81 callgsubr
          endchar
        </CharString>
        <CharString name="r">
          -116 -73 callgsubr
          381 26 -26 69 28 -20 hstemhm
          110 84 hintmask 00000000
          hintmask 10010110
          192 376 rmoveto
          33 2 20 -84 callsubr
          hvcurveto
          hintmask 01010110
          -81 callsubr
          hintmask 10010110
          -75 callsubr
          hintmask 00101110
          -106 callsubr
          224 vlineto
          21 16 26 18 31 hhcurveto
          24 25 -13 -20 23 hvcurveto
          29 13 16 26 21 vvcurveto
          22 -16 20 -35 -56 -61 -49 -25 -23 vhcurveto
          endchar
        </CharString>
        <CharString name="registered">
          233 -13 44 127 23 -23 204 143 26 97 44 hstemhm
          35 44 176 68 109 71 158 44 -43 callsubr
          hintmask 1101111110000000
          371 -13 rmoveto
          185 149 153 190 188 -149 154 -185 -186 -150 -154 -188 -190 150 -153 186 hvcurveto
          44 vmoveto
          -163 -129 132 167 165 129 133 163 163 127 -133 -165 -167 -127 -132 -163 hvcurveto
          -48 309 rmoveto
          -1 5 3 0 4 hhcurveto
          6 -4 2 -4 4 -6 17 -26 34 -52 14 -21 rrcurveto
          -55 38 29 -13 46 hhcurveto
          12 33 -1 14 5 -3 5 -4 -48 -67 91 71 -41 hvcurveto
          51 13 45 32 48 vvcurveto
          49 -49 46 -102 vhcurveto
          -74 hlineto
          -16 -19 1 -30 hhcurveto
          -4 -1 -4 -3 -7 2 -8 3 hvcurveto
          32 hlineto
          5 5 -6 -41 hvcurveto
          -256 vlineto
          -18 -3 -6 -18 vhcurveto
          -24 hlineto
          -3 -1 -6 -6 -4 1 -4 3 hvcurveto
          18 23 1 47 21 25 0 23 hhcurveto
          32 callsubr
          8 -2 5 -2 hvcurveto
          -32 hlineto
          -4 -8 4 42 hvcurveto
          109 200 rmoveto
          hintmask 1011111110000000
          -37 -24 -31 -60 -8 -6 1 2 -11 vhcurveto
          119 vlineto
          14 6 7 16 66 21 -36 -39 vhcurveto
          endchar
        </CharString>
        <CharString name="ring">
          -187 525 29 124 28 hstem
          66 34 119 34 vstem
          159 525 -13 callsubr
          -75 callgsubr
        </CharString>
        <CharString name="s">
          -125 -13 32 399 32 13 -20 hstemhm
          69 74 130 76 hintmask 00000000
          hintmask 11011000
          -76 callsubr
          -69 callgsubr
          hintmask 10111000
          -2 callgsubr
          endchar
        </CharString>
        <CharString name="scaron">
          -125 -13 23 5 -21 423 23 90 147 hstemhm
          62 279 -278 12 214 68 hintmask 00000000
          hintmask 01110110
          -76 callsubr
          hintmask 10110110
          -69 callgsubr
          -2 callgsubr
          -194 237 rmoveto
          6 -7 -6 callgsubr
          hintmask 01111000
          -87 callgsubr
          -77 callgsubr
        </CharString>
        <CharString name="section">
          17 -204 60 808 50 hstem
          40 67 81 55 32 64 81 81 vstem
          40 447 rmoveto
          -206 235 -83 -217 vvcurveto
          -57 -28 -28 -40 -38 -60 46 52 -21 vhcurveto
          -32 -21 -11 -21 -24 vvcurveto
          -46 45 -46 89 72 42 43 0 vhcurveto
          159 33 49 83 84 223 -258 162 153 vvcurveto
          60 20 27 41 50 37 -36 -55 29 vhcurveto
          33 18 15 23 22 vvcurveto
          41 -45 37 -79 -46 -34 -12 -38 -44 vhcurveto
          -141 -39 -39 -94 -84 vvcurveto
          67 45 rmoveto
          60 41 41 52 29 vhcurveto
          -10 -22 -2 -20 -27 -180 232 -137 -213 vvcurveto
          -53 -23 -64 -82 -28 vhcurveto
          16 34 8 43 32 226 -232 131 148 vvcurveto
          endchar
        </CharString>
        <CharString name="semicolon">
          -143 -21 266 221 0 114 hstemhm
          75 114 -30 44 hintmask 00000000
          hintmask 10110000
          132 -28 callsubr
          -61 -487 rmoveto
          hintmask 11001000
          -90 callgsubr
          -81 callgsubr
          endchar
        </CharString>
        <CharString name="seven">
          -27 -218 -21 605 76 6 -20 47 -20 hstemhm
          114 87 hintmask 00000000
          hintmask 10111000
          486 434 rmoveto
          9 -7 5 -8 vhcurveto
          hintmask 11011000
          -80 callgsubr
          -209 -38 callgsubr
          247 -3 callgsubr
        </CharString>
        <CharString name="seven.taboldstyle">
          -34 -231 -21 610 82 hstem
          46 15 vstem
          482 658 rmoveto
          9 -7 5 -8 vhcurveto
          -80 callgsubr
          -208 -38 callgsubr
          246 -3 callgsubr
        </CharString>
        <CharString name="six">
          49 -13 37 284 44 341 -20 hstem
          64 101 237 100 vstem
          226 -45 callsubr
          150 -36 callsubr
          -132 -41 callsubr
        </CharString>
        <CharString name="six.taboldstyle">
          24 -13 23 397 30 230 23 hstem
          25 100 266 100 vstem
          219 -45 callsubr
          144 -36 callsubr
          -126 -41 callsubr
        </CharString>
        <CharString name="slash">
          73 -116 -21 903 -20 hstem
          563 749 -26 callsubr
          -466 -866 -57 callsubr
          endchar
        </CharString>
        <CharString name="space">
          endchar
        </CharString>
        <CharString name="sterling">
          22 -13 34 -34 87 5 44 194 34 -34 47 271 49 hstemhm
          31 35 18 98 -5 75 -43 callsubr
          hintmask 1010111100000000
          339 312 rmoveto
          12 -7 12 13 20 2 7 -6 hvcurveto
          hintmask 1011011100000000
          -26 -30 -9 -4 -54 hvcurveto
          -21 57 -27 47 48 vvcurveto
          78 42 54 78 84 36 -95 0 -9 -6 -33 -6 -13 vhcurveto
          -5 -13 33 -10 2 10 7 38 14 52 33 54 4 7 -17 15 -10 -10 rrcurveto
          -6 -7 -7 -10 0 vvcurveto
          52 -54 -57 21 -52 hhcurveto
          -117 -94 -99 -113 -47 14 -40 17 -37 hvcurveto
          1 -20 -11 2 -12 -15 2 -34 11 18 18 2 22 hhcurveto
          hintmask 1011011010000000
          24 -49 25 -50 -63 vvcurveto
          -13 -1 -11 -2 -11 vhcurveto
          -4 -4 1 -4 hhcurveto
          -93 -38 -45 -44 -26 21 -21 34 37 48 21 55 35 hvcurveto
          -27 61 43 -49 87 hhcurveto
          99 30 93 42 16 hvcurveto
          5 14 -18 5 -5 -11 rrcurveto
          hintmask 0111011010000000
          -32 -15 -25 -24 -62 hhcurveto
          -87 -40 27 14 -63 hvcurveto
          13 34 7 42 50 vvcurveto
          27 -6 29 -6 24 vhcurveto
          -3 44 30 -6 25 hhcurveto
          hintmask 1011011100000000
          -251 -291 rmoveto
          -12 -10 7 12 30 34 9 38 7 8 -1 -1 7 hvcurveto
          -41 -20 -30 -15 -22 hhcurveto
          endchar
        </CharString>
        <CharString name="t">
          -169 -16 63 352 38 135 -20 hstemhm
          90 236 hintmask 00000000
          90 120 rmoveto
          -90 44 -46 71 76 45 64 29 4 -4 5 -6 vhcurveto
          -11 -12 -39 -44 hhcurveto
          hintmask 11110000
          -55 -19 31 64 hvcurveto
          257 126 vlineto
          6 2 10 7 9 -4 12 -6 hvcurveto
          -124 hlineto
          62 6 31 29 vvcurveto
          7 -3 6 -7 -4 -7 -1 -6 -2 vhcurveto
          -23 -65 -32 -58 -66 -13 rrcurveto
          -6 -1 -2 -9 -5 vvcurveto
          -6 4 -9 6 vhcurveto
          51 hlineto
          endchar
        </CharString>
        <CharString name="thorn">
          96 -1 callsubr
          36 366 61 4 callsubr
          hstemhm
          118 83 262 100 hintmask 00000000
          hintmask 10111111
          201 375 rmoveto
          148 3 175 37 -94 callsubr
          -809 vlineto
          -32 callgsubr
          hintmask 01111111
          -81 callsubr
          hintmask 10111111
          -70 callsubr
          -79 -54 -35 -40 -33 hvcurveto
          -32 vmoveto
          -62 callgsubr
        </CharString>
        <CharString name="three">
          44 -237 43 441 208 -45 45 hstemhm
          56 91 192 99 -39 96 hintmask 00000000
          hintmask 11010100
          230 -237 -19 callgsubr
          hintmask 11011000
          -49 callgsubr
          hintmask 10111000
          -42 callgsubr
          hintmask 11010100
          -44 callgsubr
        </CharString>
        <CharString name="three.taboldstyle">
          23 -252 23 353 20 74 40 172 23 hstem
          13 57 205 93 -54 100 vstem
          220 -13 -19 callgsubr
          -49 callgsubr
          -42 callgsubr
          -44 callgsubr
        </CharString>
        <CharString name="threequarters">
          0 callsubr
          186 7 callgsubr
          29 -20 hstemhm
          59 25 callsubr
          262 62 -43 callsubr
          hintmask 1001110110011000
          -90 callsubr
          -27 312 -52 callgsubr
          hintmask 1001110110101000
          -48 callsubr
          hintmask 1001101110101000
          13 callsubr
          hintmask 1001110101001000
          -29 callgsubr
          hintmask 0111110110011000
          2 callsubr
          402 -331 -18 callgsubr
          hintmask 1001110110101000
          -30 callsubr
          hintmask 0111110110101000
          -77 callsubr
        </CharString>
        <CharString name="threesuperior">
          -193 276 7 callgsubr
          hstemhm
          37 25 callsubr
          hintmask 00000000
          hintmask 11101001
          145 303 -52 callgsubr
          hintmask 11101010
          -48 callsubr
          hintmask 11011010
          13 callsubr
          hintmask 11100100
          -29 callgsubr
          hintmask 11101001
          2 callsubr
          endchar
        </CharString>
        <CharString name="tilde">
          -87 27 callsubr
          324 26 vstem
          64 534 -31 callsubr
          -91 callgsubr
          -88 callsubr
        </CharString>
        <CharString name="trademark">
          389 278 20 344 40 -25 25 -20 20 hstem
          34 23 118 56 118 23 116 25 313 56 vstem
          234 640 rmoveto
          16 2 7 11 1 vhcurveto
          31 -1 30 -1 25 -6 21 callgsubr
          -20 2 -14 rrcurveto
          -4 1 7 -1 5 hhcurveto
          6 6 2 3 hvcurveto
          -3 21 -1 32 25 vvcurveto
          3 -7 2 -6 -6 -1 -2 -3 vhcurveto
          -9 vlineto
          -1 -18 -21 -1 -38 hhcurveto
          -156 hlineto
          -29 -17 1 1 -18 hvcurveto
          9 vlineto
          3 -2 2 -5 -6 -8 -2 -3 -25 0 -33 -3 -21 vhcurveto
          -3 6 -1 6 5 5 1 4 1 vhcurveto
          2 14 8 20 9 4 rrcurveto
          5 22 32 3 29 hhcurveto
          10 hlineto
          4 2 -15 -31 hvcurveto
          -241 vlineto
          -19 -3 -5 -13 vhcurveto
          -23 hlineto
          -6 0 -5 -5 -4 -1 -4 7 hvcurveto
          7 5 1 7 hhcurveto
          1 11 16 0 27 hhcurveto
          32 hlineto
          11 11 -1 11 hhcurveto
          6 1 4 3 7 0 3 -7 hvcurveto
          -30 hlineto
          -3 -3 6 40 hvcurveto
          374 -56 rmoveto
          12 24 28 64 26 60 45 103 rcurveline
          13 -162 5 -63 rlineto
          -11 1 -4 -5 -10 hhcurveto
          -19 hlineto
          -7 1 -4 -5 -4 -1 -5 7 hvcurveto
          4 10 1 11 hhcurveto
          1 15 18 0 10 hhcurveto
          30 hlineto
          14 15 -1 8 hhcurveto
          7 0 4 5 4 0 4 -7 hvcurveto
          -30 5 callgsubr
          13 17 -3 hvcurveto
          -9 75 -17 172 15 vvcurveto
          17 -1 3 8 9 hhcurveto
          20 hlineto
          7 -1 5 4 4 -2 4 -4 hvcurveto
          -8 -12 -1 -13 hhcurveto
          -1 -17 -24 0 -18 hhcurveto
          -12 -37 -24 -59 -25 -61 -16 -37 -14 -38 -16 -40 -20 53 -21 59 -21 58 -18 49 -14 40 -4 13 rrcurveto
          -19 -26 0 1 -19 hvcurveto
          -15 -14 1 -10 hhcurveto
          -6 -1 -5 -4 -3 1 -5 6 hvcurveto
          25 hlineto
          6 3 -11 -37 -26 -20 -180 -7 -49 hvcurveto
          -11 -3 -7 -3 -12 hhcurveto
          -17 hlineto
          -6 -1 -5 -4 -4 1 -5 6 hvcurveto
          4 7 1 8 hhcurveto
          1 13 17 0 16 hhcurveto
          21 hlineto
          9 11 -1 15 hhcurveto
          7 0 6 4 4 0 3 -7 hvcurveto
          -24 hlineto
          -5 -4 11 36 1 hvcurveto
          34 4 65 7 98 vhcurveto
          30 -77 60 -147 18 -29 rrcurveto
          -3 2 5 -2 5 hhcurveto
          6 6 1 3 2 hvcurveto
          endchar
        </CharString>
        <CharString name="two">
          -24 -8 -21 29 60 196 199 -39 39 hstemhm
          58 85 166 97 hintmask 00000000
          hintmask 11101100
          -9 callgsubr
          352 -22 hlineto
          -5 8 -2 8 8 7 2 5 51 2 56 -29 callsubr
          -69 -10 -90 hhcurveto
          -26 -18 -1 0 hvcurveto
          -2 3 rlineto
          84 50 163 103 113 vvcurveto
          82 -81 45 -92 -81 -94 -64 -81 -33 23 -21 26 24 19 9 16 callsubr
          hintmask 11011100
          46 36 35 50 45 35 -34 -44 -95 -123 -137 -140 -84 vhcurveto
          endchar
        </CharString>
        <CharString name="two.taboldstyle">
          13 0 81 167 37 148 20 hstem
          51 65 207 100 vstem
          -9 callgsubr
          404 -22 hlineto
          -5 8 -2 8 8 7 2 5 51 2 58 -29 callsubr
          -101 -10 -110 hhcurveto
          -26 -18 -1 0 hvcurveto
          -2 3 rlineto
          151 109 144 179 151 vvcurveto
          100 -81 76 -118 -109 -113 -89 -85 -36 26 -18 28 24 19 10 16 callsubr
          53 45 53 61 80 42 -69 -84 -158 -148 -182 -157 -122 vhcurveto
          endchar
        </CharString>
        <CharString name="twosuperior">
          -148 349 -21 22 42 136 144 -29 29 hstemhm
          57 65 105 69 -69 87 hintmask 00000000
          hintmask 11101010
          49 367 -73 callsubr
          hintmask 11101100
          -49 callsubr
          hintmask 11011100
          -14 callgsubr
        </CharString>
        <CharString name="u">
          58 -13 55 365 29 3 -14 callsubr
          hintmask 10111000
          178 332 rmoveto
          -56 callsubr
          -56 callgsubr
          hintmask 11011000
          -104 callgsubr
          hintmask 10111000
          -56 callgsubr
          hintmask 11011000
          -100 callgsubr
          -216 vlineto
          -37 -20 -37 -24 -40 hhcurveto
          -90 -26 46 135 hvcurveto
          endchar
        </CharString>
        <CharString name="uacute">
          -40 callsubr
          325 -14 callsubr
          hintmask 10111100
          178 332 rmoveto
          -56 callsubr
          6 -4 2 -6 vhcurveto
          hintmask 11011100
          -104 callgsubr
          hintmask 10111100
          -78 callgsubr
          -216 vlineto
          -37 -20 -37 -24 -40 hhcurveto
          -90 -26 46 135 hvcurveto
          40 314 -92 callgsubr
          endchar
        </CharString>
        <CharString name="ucircumflex">
          -40 callsubr
          272 -14 callsubr
          hintmask 10111100
          178 332 rmoveto
          -56 callsubr
          6 -4 2 -6 vhcurveto
          hintmask 11011100
          -104 callgsubr
          hintmask 10111100
          -78 callgsubr
          -216 vlineto
          -37 -20 -37 -24 -40 hhcurveto
          -90 -26 46 135 hvcurveto
          213 307 -107 callsubr
          endchar
        </CharString>
        <CharString name="udieresis">
          -40 callsubr
          136 102 hstemhm
          93 85 -30 19 callgsubr
          -26 -38 callsubr
          hintmask 10111010
          178 332 rmoveto
          -56 callsubr
          -56 callgsubr
          hintmask 11011001
          -104 callgsubr
          hintmask 10111010
          -56 callgsubr
          hintmask 11011001
          -100 callgsubr
          -216 vlineto
          -37 -20 -37 -24 -40 hhcurveto
          -90 -26 46 135 hvcurveto
          21 332 rmoveto
          hintmask 11010110
          -105 callgsubr
        </CharString>
        <CharString name="ugrave">
          -40 callsubr
          318 -14 callsubr
          hintmask 10111100
          178 332 rmoveto
          -56 callsubr
          6 -4 2 -6 vhcurveto
          hintmask 11011100
          -104 callgsubr
          hintmask 10111100
          -78 callgsubr
          -216 vlineto
          -37 -20 -37 -24 -40 hhcurveto
          -90 -26 46 135 hvcurveto
          181 314 -102 callgsubr
          endchar
        </CharString>
        <CharString name="underscore">
          -7 -122 41 -1 callgsubr
          456 -76 rmoveto
          hintmask 10000000
          0 -367 -5 -91 vhcurveto
          3 callsubr
          468 hlineto
          hintmask 01000000
          -47 callsubr
          endchar
        </CharString>
        <CharString name="v">
          -46 -2 -21 434 27 hstem
          459 412 rmoveto
          5 -20 callsubr
          -5 hvcurveto
          -34 -15 -2 -24 -30 -12 2 -50 -17 callsubr
          -6 4 -6 -21 callsubr
          -77 -66 callsubr
          51 -107 94 -207 18 -72 -44 callsubr
        </CharString>
        <CharString name="w">
          196 -2 -21 434 27 hstem
          702 412 rmoveto
          5 -20 callsubr
          -5 hvcurveto
          -34 -15 -2 -24 -30 -12 2 -50 hhcurveto
          -3 -2 -9 -7 -6 3 -5 -21 callsubr
          -67 -66 callsubr
          8 -17 9 -20 9 -21 -18 -52 -28 -75 -28 -94 rrcurveto
          -37 111 -77 186 12 vvcurveto
          6 5 3 6 vhcurveto
          33 hlineto
          4 2 6 7 6 -1 -34 callsubr
          -46 -22 -2 -25 -36 -22 2 -37 -17 callsubr
          -7 2 -5 4 28 9 -5 -33 16 hvcurveto
          51 -107 94 -207 18 -72 rrcurveto
          -7 3 8 -3 8 hhcurveto
          9 9 4 5 2 hvcurveto
          10 34 47 131 44 110 44 -104 46 -119 13 -51 -44 callsubr
        </CharString>
        <CharString name="x">
          43 -1 29 -7 -21 412 26 hstemhm
          hintmask 00000000
          hintmask 10100000
          313 242 rmoveto
          54 60 60 68 33 35 rrcurveto
          5 5 4 2 7 hhcurveto
          40 hlineto
          5 2 4 7 7 -2 8 -5 hvcurveto
          -31 -27 -2 -20 -37 -23 2 -35 hhcurveto
          -4 -1 -8 -6 -6 1 -7 4 hvcurveto
          38 hlineto
          3 2 -2 -5 -5 -3 -8 -7 -13 hvcurveto
          -12 -20 -12 -15 -62 -71 rrcurveto
          -48 60 -50 65 8 vvcurveto
          4 3 3 5 vhcurveto
          60 hlineto
          4 -20 callsubr
          -4 hvcurveto
          -36 -62 -2 -22 -38 -31 2 -39 -7 callsubr
          -6 -6 2 -7 4 hvcurveto
          20 hlineto
          13 18 -11 -15 13 hvcurveto
          44 -53 40 -50 56 -71 -65 -72 -58 -63 -36 -38 rrcurveto
          -7 -7 -6 -3 -12 hhcurveto
          -32 hlineto
          -5 -1 -6 -6 -7 2 -10 4 hvcurveto
          29 37 2 21 hhcurveto
          hintmask 01100000
          23 25 -1 43 hhcurveto
          4 3 9 7 7 -2 -34 callsubr
          -50 hlineto
          -4 6 21 36 30 hvcurveto
          20 25 33 38 27 32 rrcurveto
          31 -43 65 -71 -31 vvcurveto
          hintmask 10100000
          -6 -4 -3 -8 vhcurveto
          -51 5 callgsubr
          -7 -6 -7 2 -24 callsubr
          33 64 2 31 hhcurveto
          hintmask 01100000
          23 30 -1 54 hhcurveto
          5 3 8 7 7 -3 8 -5 hvcurveto
          -33 hlineto
          -11 -15 17 50 -40 hvcurveto
          -37 46 -41 51 -38 48 rrcurveto
          endchar
        </CharString>
        <CharString name="y">
          0 callgsubr
          hstem
          -102 callsubr
          endchar
        </CharString>
        <CharString name="yacute">
          0 callgsubr
          306 -20 hstem
          -102 callsubr
          -271 125 -92 callgsubr
          endchar
        </CharString>
        <CharString name="ydieresis">
          0 callgsubr
          117 102 hstem
          120 19 callgsubr
          vstem
          -102 callsubr
          -270 143 rmoveto
          -105 callgsubr
        </CharString>
        <CharString name="yen">
          99 -76 callgsubr
          150 42 122 44 282 33 9 callsubr
          hintmask 10011110
          481 196 rmoveto
          0 -55 -1 -71 -1 vhcurveto
          120 173 vlineto
          -47 callsubr
          0 -48 -1 -64 -1 vhcurveto
          44 73 130 135 70 58 rrcurveto
          -103 callsubr
          41 -48 90 -105 44 -68 rrcurveto
          -1 -64 -59 0 -32 hhcurveto
          3 callsubr
          141 hlineto
          2 -5 1 -4 -3 vvcurveto
          -110 vlineto
          -1 -73 -72 0 -36 hhcurveto
          3 callsubr
          144 -72 hlineto
          -35 -7 -11 -34 vhcurveto
          -43 hlineto
          -5 -3 -9 -9 hvcurveto
          hintmask 01011110
          -72 callgsubr
          vhcurveto
          hintmask 10011110
          31 callgsubr
          hintmask 00111110
          39 43 -97 callgsubr
          14 58 hvcurveto
          45 173 vlineto
          -47 callsubr
          endchar
        </CharString>
        <CharString name="z">
          27 callgsubr
          19 -46 callgsubr
          hintmask 10100000
          -70 callgsubr
          hintmask 10010000
          -41 callgsubr
          hintmask 10100000
          -53 callgsubr
          hintmask 01100000
          -8 callgsubr
          endchar
        </CharString>
        <CharString name="zcaron">
          27 callgsubr
          247 -20 21 -46 callgsubr
          hintmask 10110000
          -70 callgsubr
          -41 callgsubr
          -53 callgsubr
          hintmask 01110000
          -8 callgsubr
          -318 558 rmoveto
          6 -7 -6 callgsubr
          -87 callgsubr
          hintmask 10101000
          -77 callgsubr
        </CharString>
        <CharString name="zero">
          49 -13 85 298 85 hstem
          50 41 357 41 vstem
          489 222 rmoveto
          122 -86 111 -128 -132 -93 -103 -130 -131 86 -104 33 callgsubr
          89 111 124 vhcurveto
          -41 4 rmoveto
          -108 -89 -46 -94 -87 -87 46 99 107 87 46 93 85 92 -45 -99 vhcurveto
          endchar
        </CharString>
        <CharString name="zero.taboldstyle">
          13 -13 20 426 20 hstem
          -37 100 286 100 vstem
          38 355 rmoveto
          -249 106 -119 108 115 115 119 249 200 -86 124 -130 -117 -111 -134 -190 vhcurveto
          354 -8 rmoveto
          -223 -56 -93 -84 -80 -44 93 229 183 60 99 80 86 38 -89 -199 vhcurveto
          endchar
        </CharString>
      <CharString index="0">
        rmoveto
        -19 6 -4 -12 -20 hhcurveto
        -57 hlineto
        -5 -4 -7 -9 -12 4 -6 5 hvcurveto
        40 52 3 35 hhcurveto
        hintmask 01110000
        36 39 -1 52 hhcurveto
        6 2 9 9 21 callgsubr
        -6 hvcurveto
        -36 hlineto
        -10 -14 23 77 -29 hvcurveto
        -201 543 rlineto
        15 -5 -4 15 -5 -20 9 -45 -57 hhcurveto
        -6 -4 -4 -4 hvcurveto
        -5 8 -8 -12 vvcurveto
        19 callsubr
        -4 -10 vhcurveto
        -93 -232 -40 -149 -76 -164 rrcurveto
        hintmask 10110000
        -16 -8 -9 -6 -16 hhcurveto
        -50 hlineto
        -4 -5 -7 -10 -11 4 -6 5 hvcurveto
        37 35 3 39 hhcurveto
        hintmask 01110000
        34 63 -1 32 hhcurveto
        10 3 11 6 6 -3 10 -8 hvcurveto
        -72 5 callgsubr
        5 10 11 2 16 6 21 hvcurveto
        20 72 21 71 22 70 rrcurveto
        181 hlineto
        28 -84 28 -81 26 -81 rrcurveto
        -172 506 rmoveto
        4 hlineto
        24 -77 25 -73 23 -70 rrcurveto
        -154 hlineto
        25 74 25 73 28 73 rrcurveto
        return
      </CharString>
      <CharString index="1">
        29 24 2 171 hhcurveto
        247 -22 hlineto
        -5 8 -2 8 8 7 2 5 51 2 58 7 50 20 callgsubr
        -7 2 -8 hhcurveto
        -9 -9 -3 -5 -1 hvcurveto
        -7 -55 -37 -26 -88 -15 -87 -1 rlinecurve
        -51 hlineto
        -25 callsubr
        192 vlineto
        90 -2 87 -9 7 -4 11 -60 rcurveline
        -4 6 -2 7 9 10 3 5 -1 vhcurveto
        -4 31 -1 32 29 vvcurveto
        30 1 23 4 31 20 callgsubr
        -8 3 -8 hhcurveto
        -8 -7 -2 -5 -1 hvcurveto
        -10 -59 -6 -4 -92 -8 -87 -2 rlinecurve
        return
      </CharString>
      <CharString index="2">
        -105 callsubr
        endchar
      </CharString>
      <CharString index="3">
        -100 callgsubr
        -140 vlineto
        -140 63 -52 93 44 61 22 51 38 vhcurveto
        2 hlineto
        -42 6 -31 18 13 29 32 14 87 vhcurveto
        -37 callgsubr
        6 8 vvcurveto
        7 -4 8 34 callsubr
        -13 -3 -12 hhcurveto
        -8 -8 2 4 -5 hvcurveto
        -12 10 -2 24 46 vvcurveto
        186 -22 callgsubr
        return
      </CharString>
      <CharString index="4">
        rmoveto
        -200 -164 -156 -192 -194 164 -155 200 200 164 155 194 192 -164 156 -200 hvcurveto
        -46 vmoveto
        142 96 -135 -167 -169 -96 -134 -142 -142 -96 134 169 167 96 135 142 hvcurveto
        return
      </CharString>
      <CharString index="5">
        rmoveto
        -2 3 4 -1 3 hhcurveto
        7 6 4 5 2 -1 2 -3 3 hvcurveto
        135 -121 9 52 -62 hhcurveto
        -20 -15 -13 -19 -37 40 -28 150 -103 hvcurveto
        return
      </CharString>
      <CharString index="6">
        9 12 -11 -77 hvcurveto
        -474 10 callgsubr
        -43 hlineto
        -5 -3 -9 -9 return
      </CharString>
      <CharString index="7">
        -33 -5 -3 -46 -18 -20 1 -33 hhcurveto
        -4 -2 -7 -6 -7 2 -9 6 -1 hvcurveto
        49 hlineto
        10 11 -11 -77 hvcurveto
        return
      </CharString>
      <CharString index="8">
        rmoveto
        150 103 40 28 37 vvcurveto
        19 -15 13 -20 -62 9 -52 -135 -121 vhcurveto
        -3 -3 -1 -2 -2 vvcurveto
        -5 6 -4 7 3 -37 callgsubr
        3 vhcurveto
        return
      </CharString>
      <CharString index="9">
        -32 9 -3 -85 -42 -31 1 -40 -99 callsubr
        56 hlineto
        9 10 -11 -77 3 hvcurveto
        3 -62 2 -46 -154 vvcurveto
        -158 -74 -76 -104 -103 -85 64 149 vhcurveto
        326 vlineto
        35 7 11 34 vhcurveto
        43 hlineto
        5 3 9 9 return
      </CharString>
      <CharString index="10">
        -1 42 hhcurveto
        7 1 8 6 12 -3 -34 callsubr
        -58 hlineto
        -9 -12 return
      </CharString>
      <CharString index="11">
        -13 -4 -4 -8 vhcurveto
        -58 31 callsubr
        return
      </CharString>
      <CharString index="12">
        hstem
        34 100 281 100 vstem
        -101 callsubr
        return
      </CharString>
      <CharString index="13">
        375 324 rmoveto
        92 -61 34 -94 -78 -99 -46 -63 -33 27 -14 23 10 12 3 7 5 vhcurveto
        -1 8 0 7 7 vvcurveto
        return
      </CharString>
      <CharString index="14">
        rmoveto
        86 -60 77 -90 -92 -65 -72 -91 -91 60 -73 95 90 62 78 86 vhcurveto
        -35 3 rmoveto
        -69 -56 -32 -66 -60 -55 32 63 69 55 31 65 59 58 -31 -63 vhcurveto
        return
      </CharString>
      <CharString index="15">
        rmoveto
        152 103 60 35 37 vvcurveto
        19 -15 13 -20 -62 -7 -59 -135 -127 vhcurveto
        -3 -3 -1 -2 -2 vvcurveto
        -5 6 -4 7 3 -37 callgsubr
        3 vhcurveto
        return
      </CharString>
      <CharString index="16">
        41 29 -13 40 hhcurveto
        44 56 28 103 4 hvcurveto
        12 1 -8 6 -8 hhcurveto
        -5 -5 -2 -6 -1 hvcurveto
        -67 -12 -39 -3 -43 return
      </CharString>
      <CharString index="17">
        70 39 62 46 95 vvcurveto
        43 -27 43 -47 -34 -23 -25 -32 -22 12 -18 14 -7 vhcurveto
        return
      </CharString>
      <CharString index="18">
        -46 -135 hvcurveto
        -169 vlineto
        hintmask 10011111
        -86 callgsubr
        140 vlineto
        return
      </CharString>
      <CharString index="19">
        5 3 9 9 8 -2 8 -6 hvcurveto
        return
      </CharString>
      <CharString index="20">
        -9 -5 -7 0 hvcurveto
        110 -147 rlineto
        -9 9 10 -5 10 hhcurveto
        9 10 5 9 7 hvcurveto
        114 147 rlineto
        return
      </CharString>
      <CharString index="21">
        -32 callgsubr
        hintmask 01011111
        -81 callsubr
        hintmask 10011111
        -75 callsubr
        hintmask 00111111
        -106 callsubr
        return
      </CharString>
      <CharString index="22">
        vstem
        274 450 rmoveto
        -122 -118 -98 -128 -132 110 -105 130 return
      </CharString>
      <CharString index="23">
        -95 callsubr
        -235 -89 callsubr
        return
      </CharString>
      <CharString index="24">
        -63 -2 24 -48 53 hhcurveto
        47 46 45 33 6 -5 4 -5 hvcurveto
        return
      </CharString>
      <CharString index="25">
        hhcurveto
        1 callgsubr
        9 12 -11 -77 hvcurveto
        return
      </CharString>
      <CharString index="26">
        39 3 22 -9 -29 vvcurveto
        -33 -44 -47 -55 -28 vhcurveto
        return
      </CharString>
      <CharString index="27">
        -22 -31 -6 -82 hhcurveto
        -219 hlineto
        3 10 3 7 3 vvcurveto
        6 -15 7 -8 -3 -2 -1 -2 -1 vhcurveto
        -2 -7 -7 -20 -21 -52 rrcurveto
        -21 -52 -13 -16 -6 vvcurveto
        -5 11 -7 13 3 -37 callgsubr
        1 vhcurveto
        8 16 3 7 6 5 rrcurveto
        25 28 47 3 115 hhcurveto
        139 hlineto
        -120 -145 -174 return
      </CharString>
      <CharString index="28">
        0 -96 72 -79 90 vhcurveto
        -9 -9 -4 -8 -9 vvcurveto
        -33 59 -37 53 -66 vhcurveto
        -53 -66 -59 -37 -33 vvcurveto
        -9 4 -8 9 -9 vhcurveto
        79 90 96 72 0 vvcurveto
        return
      </CharString>
      <CharString index="29">
        -56 callgsubr
        hintmask 11011100
        -100 callgsubr
        return
      </CharString>
      <CharString index="30">
        5 -2 -3 3 -6 hhcurveto
        -5 -7 -2 -6 -7 hvcurveto
        -111 -90 rlineto
        endchar
      </CharString>
      <CharString index="31">
        1 31 -13 -21 23 -21 return
      </CharString>
      <CharString index="32">
        -49 -43 -40 -50 -50 43 -41 50 hvcurveto
        2 29 rmoveto
        -34 -27 28 34 32 24 30 34 35 26 -29 -34 -32 -26 -29 -32 hvcurveto
        endchar
      </CharString>
      <CharString index="33">
        595 rmoveto
        35 7 11 34 vhcurveto
        43 hlineto
        return
      </CharString>
      <CharString index="34">
        1 27 -9 -21 23 -21 return
      </CharString>
      <CharString index="35">
        -8 2 -8 6 return
      </CharString>
      <CharString index="36">
        107 -8 -21 29 40 -21 -21 322 32 282 37 30 -20 return
      </CharString>
      <CharString index="37">
        421 119 rmoveto
        4 -9 3 -6 -5 -9 -1 -6 -1 vhcurveto
        -87 -14 -36 -1 -20 hhcurveto
        -171 hlineto
        35 43 200 332 16 8 rrcurveto
        3 1 3 6 6 vvcurveto
        6 -3 4 -4 vhcurveto
        -284 hlineto
        -6 1 2 4 5 vvcurveto
        return
      </CharString>
      <CharString index="38">
        0 21 -17 69 82 85 42 84 vhcurveto
        152 -206 -14 100 vvcurveto
        39 27 28 43 45 32 -32 -48 18 vhcurveto
        -7 3 6 -1 5 hhcurveto
        8 6 4 5 -1 hvcurveto
        -5 29 -3 9 -4 18 -4 16 -1 16 -6 21 rrcurveto
        return
      </CharString>
      <CharString index="39">
        481 63 rmoveto
        -19 6 -4 -12 -20 hhcurveto
        -57 hlineto
        -5 -4 -7 -9 -12 4 -6 5 hvcurveto
        40 52 3 35 hhcurveto
        return
      </CharString>
      <CharString index="40">
        667 595 rmoveto
        35 2 6 11 34 hhcurveto
        30 hlineto
        5 3 9 9 return
      </CharString>
      <CharString index="41">
        28 29 -1 49 hhcurveto
        7 2 7 8 9 -3 9 -6 hvcurveto
        -55 hlineto
        -13 -7 38 35 -1 hvcurveto
        -3 94 -1 147 -2 192 rrcurveto
        4 hlineto
        168 -204 292 -347 0 vvcurveto
        endchar
      </CharString>
      <CharString index="42">
        rmoveto
        -64 -3 -180 -27 -56 vhcurveto
        -18 -9 -14 -13 -25 hhcurveto
        -24 -43 8 18 -29 hvcurveto
        -28 -11 -16 -21 -23 vvcurveto
        -31 39 -5 14 112 88 76 96 41 vhcurveto
        22 56 5 82 95 vvcurveto
        return
      </CharString>
      <CharString index="43">
        40 44 -97 callgsubr
        11 77 hvcurveto
        endchar
      </CharString>
      <CharString index="44">
        246 -74 callgsubr
        return
      </CharString>
      <CharString index="45">
        16 19 26 30 63 hhcurveto
        97 55 -83 -89 -89 -36 -105 -99 -68 -48 35 106 -9 hvcurveto
        endchar
      </CharString>
      <CharString index="46">
        31 25 -1 38 hhcurveto
        4 1 6 6 8 -2 8 -4 hvcurveto
        -44 hlineto
        -7 -8 0 55 hvcurveto
        return
      </CharString>
      <CharString index="47">
        hstemhm
        43 76 -76 95 155 82 -82 171 -43 callsubr
        return
      </CharString>
      <CharString index="48">
        148 -2 34 -11 -21 309 40 return
      </CharString>
      <CharString index="49">
        8 8 -8 -56 hvcurveto
        -190 vlineto
        -8 -3 -3 -6 vhcurveto
        -50 hlineto
        -2 -2 -8 -8 return
      </CharString>
      <CharString index="50">
        10 callgsubr
        -43 hlineto
        -5 -3 -9 -9 hvcurveto
        return
      </CharString>
      <CharString index="51">
        6 -4 2 -6 vhcurveto
        return
      </CharString>
      <CharString index="52">
        hstemhm
        56 190 -103 return
      </CharString>
      <CharString index="53">
        1 -5 -6 callgsubr
        -33 -18 -28 -25 -49 66 -41 79 128 146 96 148 125 -106 90 -129 -38 -22 -5 -7 -23 hvcurveto
        18 return
      </CharString>
      <CharString index="54">
        69 24 26 9 19 hhcurveto
        142 hlineto
        0 -225 -373 -25 -11 vhcurveto
        -4 -3 -2 -3 -5 vvcurveto
        -6 1 -6 5 312 21 -2 -12 vhcurveto
        return
      </CharString>
      <CharString index="55">
        rmoveto
        -44 -28 41 29 -1 hvcurveto
        1 -3 -3 0 -3 hhcurveto
        -20 -12 -15 -19 -28 29 -36 78 87 60 56 74 42 -31 39 -75 17 hvcurveto
        1 vlineto
        return
      </CharString>
      <CharString index="56">
        rmoveto
        -6 -22 -32 -4 -23 -34 -37 4 -30 hhcurveto
        -36 -26 -6 -25 hvcurveto
        hintmask 01111100
        -6 3 -7 4 -7 vhcurveto
        hintmask 10111100
        4 11 15 1 22 hhcurveto
        return
      </CharString>
      <CharString index="57">
        0 -53 -2 -65 -1 vhcurveto
        3 57 6 50 6 35 rrcurveto
        55 9 16 28 -12 hhcurveto
        -21 -27 -10 -13 -46 hvcurveto
        -15 -4 17 -15 -111 vvcurveto
        return
      </CharString>
      <CharString index="58">
        72 39 51 50 71 vvcurveto
        83 -91 47 -77 -85 -129 -60 -92 -37 25 -19 26 20 22 11 23 11 vhcurveto
        -9 17 -4 14 15 vvcurveto
        return
      </CharString>
      <CharString index="59">
        26 55 -1 26 hhcurveto
        4 33 callsubr
        7 -3 6 -4 3 hvcurveto
        -69 369 115 hlineto
        6 3 10 7 9 -4 12 -7 hvcurveto
        return
      </CharString>
      <CharString index="60">
        -41 -13 85 170 207 -54 54 return
      </CharString>
      <CharString index="61">
        -20 hstemhm
        hintmask 00000000
        return
      </CharString>
      <CharString index="62">
        -6 8 -2 8 8 7 2 6 50 1 52 7 35 vhcurveto
        7 1 -8 4 -8 hhcurveto
        -9 -8 -4 -7 -1 hvcurveto
        -6 -47 rlineto
        return
      </CharString>
      <CharString index="63">
        80 -18 46 -82 -78 vvcurveto
        -104 -70 -51 -70 -76 -50 51 88 -20 vhcurveto
        0 -71 8 -73 vvcurveto
        -83 110 -34 78 vhcurveto
        endchar
      </CharString>
      <CharString index="64">
        hlineto
        -88 callgsubr
        -32 return
      </CharString>
      <CharString index="65">
        43 45 40 52 64 31 -42 -58 vhcurveto
        -153 -189 2 -82 vvcurveto
        -21 18 -9 20 6 vhcurveto
        0 -5 49 90 37 vhcurveto
        return
      </CharString>
      <CharString index="66">
        7 -8 2 -9 -6 -6 -1 -6 -2 vhcurveto
        -7 -21 -19 -67 -4 -32 rrcurveto
        -3 9 -2 6 6 7 2 3 1 vhcurveto
        return
      </CharString>
      <CharString index="67">
        317 -13 46 605 46 return
      </CharString>
      <CharString index="68">
        -5 -91 vhcurveto
        0 -1 return
      </CharString>
      <CharString index="69">
        -232 vvcurveto
        -9 0 -10 6 vhcurveto
        11 1 53 30 12 8 rrcurveto
        5 4 0 4 5 vvcurveto
        211 162 return
      </CharString>
      <CharString index="70">
        4 1 2 return
      </CharString>
      <CharString index="71">
        -106 callsubr
        140 vlineto
        return
      </CharString>
      <CharString index="72">
        416 rmoveto
        -90 callgsubr
        return
      </CharString>
      <CharString index="73">
        -32 -23 -3 -85 -40 return
      </CharString>
      <CharString index="74">
        -16 -19 -26 -30 -63 hhcurveto
        -97 -55 83 89 89 36 105 99 68 48 -35 -106 9 hvcurveto
        endchar
      </CharString>
      <CharString index="75">
        -96 callgsubr
        hvcurveto
        return
      </CharString>
      <CharString index="76">
        42 -13 36 391 36 return
      </CharString>
      <CharString index="77">
        -208 -73 callgsubr
        681 30 36 12 callgsubr
        85 28 callgsubr
        return
      </CharString>
      <CharString index="78">
        -83 -107 -5 -46 vvcurveto
        -7 6 -8 11 2 2 0 1 3 vhcurveto
        0 -7 25 48 18 vhcurveto
        return
      </CharString>
      <CharString index="79">
        -24 0 -25 -1 -24 vhcurveto
        -1 -63 -63 0 -37 hhcurveto
        4 callgsubr
        125 hlineto
        return
      </CharString>
      <CharString index="80">
        555 rmoveto
        29 22 24 29 27 -25 22 -26 -27 -24 -21 -28 -29 21 -24 30 hvcurveto
        return
      </CharString>
      <CharString index="81">
        -4 -1 -6 -6 -8 2 -8 5 hvcurveto
        43 hlineto
        return
      </CharString>
      <CharString index="82">
        -20 hstemhm
        43 76 -76 95 155 return
      </CharString>
      <CharString index="83">
        8 -2 8 -6 vhcurveto
        return
      </CharString>
      <CharString index="84">
        -2 2 5 -1 5 hhcurveto
        9 10 2 4 2 hvcurveto
        -2 41 -9 62 -16 56 rrcurveto
        return
      </CharString>
      <CharString index="85">
        vlineto
        -56 callsubr
        return
      </CharString>
      <CharString index="86">
        rmoveto
        -85 callsubr
        return
      </CharString>
      <CharString index="87">
        -32 callsubr
        267 -20 hstem
        132 103 366 57 vstem
        return
      </CharString>
      <CharString index="88">
        rmoveto
        133 132 75 127 81 -58 83 -122 34 hvcurveto
        2 vlineto
        return
      </CharString>
      <CharString index="89">
        rmoveto
        -10 0 -7 -11 vhcurveto
        -29 hlineto
        -2 -2 -6 -4 -5 3 -6 3 hvcurveto
        return
      </CharString>
      <CharString index="90">
        48 126 476 126 return
      </CharString>
      <CharString index="91">
        -42 -67 2 -23 hhcurveto
        -6 -3 -11 -8 -8 3 -7 6 hvcurveto
        63 hlineto
        return
      </CharString>
      <CharString index="92">
        rmoveto
        -224 -57 callgsubr
        return
      </CharString>
      <CharString index="93">
        33 21 24 35 32 17 -23 -32 -67 -80 -93 -98 -61 vhcurveto
        endchar
      </CharString>
      <CharString index="94">
        hstem
        -17 callgsubr
        vstem
        return
      </CharString>
      <CharString index="95">
        3 2 8 7 7 -2 6 -4 hvcurveto
        return
      </CharString>
      <CharString index="96">
        hlineto
        -33 -233 rlineto
        31 15 7 23 3 hvcurveto
        32 203 rlineto
        return
      </CharString>
      <CharString index="97">
        -7 3 -7 return
      </CharString>
      <CharString index="98">
        46 22 rmoveto
        -6 -4 -2 -5 -4 vvcurveto
        -5 3 -4 5 vhcurveto
        return
      </CharString>
      <CharString index="99">
        -4 5 -2 8 10 4 2 5 29 11 77 9 26 vhcurveto
        return
      </CharString>
      <CharString index="100">
        hlineto
        5 3 9 9 hvcurveto
        return
      </CharString>
      <CharString index="101">
        -5 1 -5 hhcurveto
        return
      </CharString>
      <CharString index="102">
        10 callgsubr
        -29 10 callsubr
        return
      </CharString>
      <CharString index="103">
        -22 -2 -13 -5 -29 hhcurveto
        -33 hlineto
        -5 -2 -9 -8 hvcurveto
        return
      </CharString>
      <CharString index="104">
        115 145 vhcurveto
        3 5 5 6 7 vvcurveto
        endchar
      </CharString>
      <CharString index="105">
        15 -4 -3 0 -11 hhcurveto
        -8 -6 -1 -22 7 hvcurveto
        return
      </CharString>
      <CharString index="106">
        29 callgsubr
        hintmask 01000000
        return
      </CharString>
      <CharString index="107">
        -37 -311 70 652 27 return
      </CharString>
      <CharString index="108">
        -7 -1 -8 -6 -12 3 -7 5 hvcurveto
        58 hlineto
        return
      </CharString>
      <CharString index="109">
        rmoveto
        -68 -56 -62 -107 -18 -17 2 4 -18 vhcurveto
        return
      </CharString>
      <CharString index="110">
        -30 -24 -24 -30 -31 26 -22 30 hvcurveto
        endchar
      </CharString>
      <CharString index="111">
        0 -1 -44 38 vhcurveto
        return
      </CharString>
      <CharString index="112">
        hlineto
        -4 -2 return
      </CharString>
      <CharString index="113">
        45 -17 -21 645 45 hstemhm
        46 124 return
      </CharString>
      <CharString index="114">
        27 140 -20 133 116 -28 28 return
      </CharString>
      <CharString index="115">
        26 266 26 33 -20 hstemhm
        83 134 return
      </CharString>
      <CharString index="116">
        160 -43 43 hintmask 00000000
        return
      </CharString>
      <CharString index="117">
        vlineto
        -35 -7 -11 -34 vhcurveto
        return
      </CharString>
      <CharString index="118">
        hlineto
        34 3 -15 return
      </CharString>
      <CharString index="119">
        -20 hstemhm
        109 return
      </CharString>
      <CharString index="120">
        8 5 10 14 13 -5 11 -8 hvcurveto
        return
      </CharString>
      <CharString index="121">
        114 hstem
        73 114 vstem
        130 return
      </CharString>
      <CharString index="122">
        -7 2 -7 4 58 10 -7 -29 25 return
      </CharString>
      <CharString index="123">
        -7 4 -9 7 vhcurveto
        109 3 rlineto
        return
      </CharString>
      <CharString index="124">
        -67 -397 45 1192 46 hstem
        return
      </CharString>
      <CharString index="125">
        -22 -407 43 1217 43 hstem
        return
      </CharString>
      <CharString index="126">
        102 65 102 return
      </CharString>
      <CharString index="127">
        vhcurveto
        6 1 return
      </CharString>
      <CharString index="128">
        9 -4 6 return
      </CharString>
      <CharString index="129">
        190 -103 103 hintmask 00000000
        hintmask 11011110
        return
      </CharString>
      <CharString index="130">
        hvcurveto
        -58 hlineto
        -25 callsubr
        return
      </CharString>
      <CharString index="131">
        vlineto
        34 3 -15 14 -35 hhcurveto
        0 return
      </CharString>
      <CharString index="132">
        -82 vvcurveto
        310 -12 rmoveto
        -48 -28 return
      </CharString>
      <CharString index="133">
        71 -58 58 -58 71 65 -20 hstemhm
        return
      </CharString>
      <CharString index="134">
        -53 0 31 -30 -21 427 30 return
      </CharString>
      <CharString index="135">
        hintmask 00000000
        hintmask 10011100
        return
      </CharString>
      <CharString index="136">
        5 -46 callgsubr
        return
      </CharString>
      <CharString index="137">
        -44 -59 -25 -37 -40 return
      </CharString>
      <CharString index="138">
        32 21 3 85 hhcurveto
        return
      </CharString>
      <CharString index="139">
        3 -24 callsubr
        return
      </CharString>
      <CharString index="140">
        135 129 return
      </CharString>
      <CharString index="141">
        739 rmoveto
        return
      </CharString>
</ttFont>
